<svg width="981" height="665" viewBox="0 0 981 665" fill="none" xmlns="http://www.w3.org/2000/svg">
<path d="M1198.21 287.633L1167.62 348.016L1127.62 403.249L1079.73 450.821L1025.75 488.849L967.716 516.023L907.739 531.604L847.946 535.425L790.387 527.912L736.907 509.894L689.169 482.739L648.538 448.108L647.098 446.354L628.859 423.888L615.956 408.031L611.858 400.554L597.569 374.617L592.031 364.594L585.829 346.244L576.931 320.03L570.488 276.52L572.113 236.129L580.937 200.833L595.797 172.311L615.18 151.987L637.462 140.91L659.725 139.803L660.814 139.748" stroke="url(#paint0_linear_94_585)" stroke-opacity="0.3" stroke-width="1.08501" stroke-linecap="round" stroke-linejoin="round"/>
<path d="M1214.09 315.359L1183.79 374.727L1143.64 429.868L1094.83 478.142L1038.94 517.407L977.776 545.965L913.461 562.616L848.222 566.769L784.368 558.37L724.114 538.027L669.546 506.903L622.527 466.733L584.463 419.715L556.347 368.395L538.626 315.488L531.186 263.781L533.401 215.969L544.164 174.452L561.904 141.298L584.758 118.056L610.584 105.78L637.203 104.875L662.402 115.268L684.074 136.276" stroke="url(#paint1_linear_94_585)" stroke-opacity="0.3" stroke-width="1.08501" stroke-linecap="round" stroke-linejoin="round"/>
<path d="M1230.24 343.567L1200.22 401.92L1159.92 456.951L1110.19 505.944L1052.32 546.464L988.004 576.425L919.295 594.165L848.537 598.633L778.259 589.347L711.1 566.623L649.591 531.474L596.074 485.656L552.471 431.586L520.129 372.236L499.804 310.874L491.46 250.915L494.377 195.627L507.188 147.926L527.938 110.193L554.317 84.1453L583.78 70.7432L613.722 70.2082L637.204 104.876L660.815 139.748L670.285 143.532L674.106 145.064L683.299 148.738" stroke="url(#paint2_linear_94_585)" stroke-opacity="0.3" stroke-width="1.08501" stroke-linecap="round" stroke-linejoin="round"/>
<path d="M1246.67 372.273L1216.97 429.573L1176.52 484.493L1125.85 534.243L1065.96 576.037L998.415 607.42L925.22 626.267L848.831 631.03L772.037 620.858L697.863 595.716L629.302 556.469L569.195 504.891L553.836 485.785L519.962 443.658L483.392 376.149L460.464 306.222L451.29 237.919L455.019 175.117L469.99 121.25L493.877 79.0131L523.894 50.2334L557.048 35.8159L590.369 35.7235L621.087 49.1072L641.67 82.0589L662.401 115.269L669.73 127.01L683.298 148.737L685.975 151.303L697.752 162.656L698.399 163.266L699.746 164.558L702.977 167.659" stroke="url(#paint3_linear_94_585)" stroke-opacity="0.3" stroke-width="1.08501" stroke-linecap="round" stroke-linejoin="round"/>
<path d="M649.608 299.391L621.973 346.17L597.569 374.617" stroke="url(#paint4_linear_94_585)" stroke-opacity="0.3" stroke-width="1.08501" stroke-linecap="round" stroke-linejoin="round"/>
<path d="M275.327 178.367L266.725 126.051L262.424 115.75" stroke="url(#paint5_linear_94_585)" stroke-opacity="0.3" stroke-width="1.08501" stroke-linecap="round" stroke-linejoin="round"/>
<path d="M660.593 175.58L651.843 226.364L668.069 249.827L649.609 299.393L665.891 323.096L682.395 347.131L699.12 371.462" stroke="url(#paint6_linear_94_585)" stroke-opacity="0.3" stroke-width="1.08501" stroke-linecap="round" stroke-linejoin="round"/>
<path d="M459.726 47.7416L493.878 79.0136L527.937 110.193L561.904 141.299L595.797 172.311" stroke="url(#paint7_linear_94_585)" stroke-opacity="0.3" stroke-width="1.08501" stroke-linecap="round" stroke-linejoin="round"/>
<path d="M432.589 94.4078L469.99 121.249L507.187 147.924L544.163 174.452L580.936 200.831" stroke="url(#paint8_linear_94_585)" stroke-opacity="0.3" stroke-width="1.08501" stroke-linecap="round" stroke-linejoin="round"/>
<path d="M493.472 16.3218L523.895 50.2335L554.317 84.1448L584.758 118.056L615.181 151.986" stroke="url(#paint9_linear_94_585)" stroke-opacity="0.3" stroke-width="1.08501" stroke-linecap="round" stroke-linejoin="round"/>
<path d="M415.33 154.422L455.02 175.116L494.377 195.625L533.402 215.969L572.113 236.127" stroke="url(#paint10_linear_94_585)" stroke-opacity="0.3" stroke-width="1.08501" stroke-linecap="round" stroke-linejoin="round"/>
<path d="M485.146 452.574L443.204 466.253L389.669 472.973L336.485 469.3L285.609 455.547L238.978 432.49L198.291 401.421L164.952 363.984L140.013 322.171L124.044 278.199L117.233 234.356L119.226 192.931L129.25 156.103L146.104 125.754L168.22 103.436L193.787 90.255L220.813 86.8401L247.285 93.3377L271.136 109.38L291.534 132.197" stroke="url(#paint11_linear_94_585)" stroke-opacity="0.3" stroke-width="1.08501" stroke-linecap="round" stroke-linejoin="round"/>
<path d="M530.411 1L557.049 35.8158L583.779 70.7425L610.584 105.78L637.462 140.91" stroke="url(#paint12_linear_94_585)" stroke-opacity="0.3" stroke-width="1.08501" stroke-linecap="round" stroke-linejoin="round"/>
<path d="M410.697 224.756L451.291 237.918L491.461 250.914L531.187 263.781L570.489 276.519" stroke="url(#paint13_linear_94_585)" stroke-opacity="0.3" stroke-width="1.08501" stroke-linecap="round" stroke-linejoin="round"/>
<path d="M567.166 1.44357L590.37 35.7239L613.722 70.208L641.671 82.0594L665.337 105.19" stroke="url(#paint14_linear_94_585)" stroke-opacity="0.3" stroke-width="1.08501" stroke-linecap="round" stroke-linejoin="round"/>
<path d="M420.628 301.495L460.465 306.221L499.804 310.873L538.626 315.488L576.931 320.029" stroke="url(#paint15_linear_94_585)" stroke-opacity="0.3" stroke-width="1.08501" stroke-linecap="round" stroke-linejoin="round"/>
<path d="M165.157 172.921L129.251 156.103L93.2354 139.212L57.0901 122.284L20.8159 105.283" stroke="url(#paint16_linear_94_585)" stroke-opacity="0.3" stroke-width="1.08501" stroke-linecap="round" stroke-linejoin="round"/>
<path d="M179.462 146.595L146.104 125.753L112.71 104.893L79.2597 83.9964L45.7913 63.0993" stroke="url(#paint17_linear_94_585)" stroke-opacity="0.3" stroke-width="1.08501" stroke-linecap="round" stroke-linejoin="round"/>
<path d="M156.812 204.468L119.227 192.93L81.4387 181.319L43.4475 169.652L5.23468 157.93" stroke="url(#paint18_linear_94_585)" stroke-opacity="0.3" stroke-width="1.08501" stroke-linecap="round" stroke-linejoin="round"/>
<path d="M1.30267 218.333L40.2355 223.723L78.8727 229.058L117.233 234.357L155.298 239.599" stroke="url(#paint19_linear_94_585)" stroke-opacity="0.3" stroke-width="1.08501" stroke-linecap="round" stroke-linejoin="round"/>
<path d="M291.017 184.199L285.147 146.078L274.772 121.01" stroke="url(#paint20_linear_94_585)" stroke-opacity="0.3" stroke-width="1.08501" stroke-linecap="round" stroke-linejoin="round"/>
<path d="M600.69 16.4132L621.088 49.1062L646.804 74.4152" stroke="url(#paint21_linear_94_585)" stroke-opacity="0.3" stroke-width="1.08501" stroke-linecap="round" stroke-linejoin="round"/>
<path d="M198.569 126.899L168.22 103.436L137.908 80.0098L107.615 56.6023L77.3771 33.2318" stroke="url(#paint22_linear_94_585)" stroke-opacity="0.3" stroke-width="1.08501" stroke-linecap="round" stroke-linejoin="round"/>
<path d="M10.5511 283.146L48.7271 281.485L86.5521 279.823L124.045 278.199L161.205 276.574" stroke="url(#paint23_linear_94_585)" stroke-opacity="0.3" stroke-width="1.08501" stroke-linecap="round" stroke-linejoin="round"/>
<path d="M33.6083 348.552L69.4398 339.673L104.902 330.886L140.013 322.173L174.756 313.57" stroke="url(#paint24_linear_94_585)" stroke-opacity="0.3" stroke-width="1.08501" stroke-linecap="round" stroke-linejoin="round"/>
<path d="M221.035 114.974L193.787 90.2559L166.614 65.6117L139.533 41.0595L112.544 16.5997" stroke="url(#paint25_linear_94_585)" stroke-opacity="0.3" stroke-width="1.08501" stroke-linecap="round" stroke-linejoin="round"/>
<path d="M592.032 364.593L556.348 368.395L520.129 372.235L483.393 376.149L446.103 380.118" stroke="url(#paint26_linear_94_585)" stroke-opacity="0.3" stroke-width="1.08501" stroke-linecap="round" stroke-linejoin="round"/>
<path d="M659.725 139.802L660.593 175.578L676.837 199.927L693.304 224.608L709.974 249.585L726.865 274.894L718.041 322.097L699.119 371.46L669.638 420.435L647.098 446.353" stroke="url(#paint27_linear_94_585)" stroke-opacity="0.3" stroke-width="1.08501" stroke-linecap="round" stroke-linejoin="round"/>
<path d="M70.1593 410.67L102.114 394.942L133.718 379.38L164.953 363.984L195.855 348.754" stroke="url(#paint28_linear_94_585)" stroke-opacity="0.3" stroke-width="1.08501" stroke-linecap="round" stroke-linejoin="round"/>
<path d="M181.936 22.1554L210.974 42.0186L230.874 64.2813" stroke="url(#paint29_linear_94_585)" stroke-opacity="0.3" stroke-width="1.08501" stroke-linecap="round" stroke-linejoin="round"/>
<path d="M148.32 13.1826L181.936 22.1545L203.571 45.7098L225.355 69.4495L250.922 86.7469" stroke="url(#paint30_linear_94_585)" stroke-opacity="0.3" stroke-width="1.08501" stroke-linecap="round" stroke-linejoin="round"/>
<path d="M118.913 465.867L145.68 444.12L172.152 422.651L198.292 401.422L224.155 380.432" stroke="url(#paint31_linear_94_585)" stroke-opacity="0.3" stroke-width="1.08501" stroke-linecap="round" stroke-linejoin="round"/>
<path d="M615.956 408.031L584.463 419.716L552.471 431.586L519.962 443.659L486.937 455.917" stroke="url(#paint32_linear_94_585)" stroke-opacity="0.3" stroke-width="1.08501" stroke-linecap="round" stroke-linejoin="round"/>
<path d="M177.746 511.038L198.403 484.548L218.82 458.353L238.978 432.49L258.916 406.922" stroke="url(#paint33_linear_94_585)" stroke-opacity="0.3" stroke-width="1.08501" stroke-linecap="round" stroke-linejoin="round"/>
<path d="M470.599 425.568L438.977 435.924L390.777 442.016L343.63 438.786L299.159 426.786L258.916 406.923L224.155 380.433L195.856 348.755L174.755 313.57L161.205 276.575L155.298 239.6L156.812 204.47L165.156 172.921L179.463 146.597L198.569 126.9L221.035 114.974L245.237 111.67L249.575 112.685L255.778 114.162L262.423 115.75L269.364 117.392L274.773 121.011L284.705 127.638L286.274 128.69L291.535 132.197L309.848 155.605L322.53 186.711L323.028 196.126" stroke="url(#paint34_linear_94_585)" stroke-opacity="0.3" stroke-width="1.08501" stroke-linecap="round" stroke-linejoin="round"/>
<path d="M243.963 543.916L258.012 514.103L271.894 484.641L285.61 455.547L299.16 426.786" stroke="url(#paint35_linear_94_585)" stroke-opacity="0.3" stroke-width="1.08501" stroke-linecap="round" stroke-linejoin="round"/>
<path d="M314.518 563.097L321.921 531.456L329.25 500.184L336.486 469.3L343.63 438.786" stroke="url(#paint36_linear_94_585)" stroke-opacity="0.3" stroke-width="1.08501" stroke-linecap="round" stroke-linejoin="round"/>
<path d="M386.273 568.137L387.417 536.034L388.544 504.32L389.67 472.974L390.777 442.016" stroke="url(#paint37_linear_94_585)" stroke-opacity="0.3" stroke-width="1.08501" stroke-linecap="round" stroke-linejoin="round"/>
<path d="M648.538 448.108L622.527 466.735L596.074 485.656L569.196 504.892L541.875 524.46" stroke="url(#paint38_linear_94_585)" stroke-opacity="0.3" stroke-width="1.08501" stroke-linecap="round" stroke-linejoin="round"/>
<path d="M1198.21 287.632L1214.09 315.359L1230.24 343.567L1246.67 372.272L1263.39 401.477L1234.01 457.744L1193.41 512.552L1141.76 563.022L1079.83 606.127L1008.99 638.931L931.258 658.905L849.128 664L765.706 652.924L684.389 625.307L608.665 581.889L543.851 526.157L541.876 524.459L523.951 502.085L504.733 478.105L502.943 475.872L486.938 455.916L485.147 452.575L470.6 425.567L446.104 380.118L420.629 301.496L410.697 224.757L415.331 154.423L432.591 94.4086L459.728 47.741L493.473 16.3217L530.412 1L567.166 1.44303L600.69 16.414L628.436 43.9566L646.804 74.416L665.338 105.19L684.075 136.276L698.88 160.847L702.978 167.659L717.949 195.848L726.423 232.122L726.866 274.895" stroke="url(#paint39_linear_94_585)" stroke-opacity="0.3" stroke-width="1.08501" stroke-linecap="round" stroke-linejoin="round"/>
<path d="M585.828 346.244L606.485 322.043L633.529 275.984L651.842 226.363" stroke="url(#paint40_linear_94_585)" stroke-opacity="0.3" stroke-width="1.08501" stroke-linecap="round" stroke-linejoin="round"/>
<path d="M456.181 559.478L451.806 528.022L447.468 496.953L443.204 466.253L438.977 435.923" stroke="url(#paint41_linear_94_585)" stroke-opacity="0.3" stroke-width="1.08501" stroke-linecap="round" stroke-linejoin="round"/>
<path d="M967.715 516.022L977.776 545.965L988.003 576.424L998.415 607.419L1008.99 638.93" stroke="url(#paint42_linear_94_585)" stroke-opacity="0.3" stroke-width="1.08501" stroke-linecap="round" stroke-linejoin="round"/>
<path d="M907.74 531.603L913.462 562.616L919.296 594.165L925.221 626.267L931.258 658.905" stroke="url(#paint43_linear_94_585)" stroke-opacity="0.3" stroke-width="1.08501" stroke-linecap="round" stroke-linejoin="round"/>
<path d="M847.946 535.424L848.222 566.77L848.536 598.632L848.832 631.03L849.127 664" stroke="url(#paint44_linear_94_585)" stroke-opacity="0.3" stroke-width="1.08501" stroke-linecap="round" stroke-linejoin="round"/>
<path d="M521.495 538.323L512.578 508.306L503.754 478.641L502.942 475.872" stroke="url(#paint45_linear_94_585)" stroke-opacity="0.3" stroke-width="1.08501" stroke-linecap="round" stroke-linejoin="round"/>
<path d="M689.169 482.739L669.545 506.903L649.59 531.474L629.302 556.469L608.664 581.889" stroke="url(#paint46_linear_94_585)" stroke-opacity="0.3" stroke-width="1.08501" stroke-linecap="round" stroke-linejoin="round"/>
<path d="M790.386 527.911L784.368 558.37L778.258 589.347L772.037 620.858L765.705 652.924" stroke="url(#paint47_linear_94_585)" stroke-opacity="0.3" stroke-width="1.08501" stroke-linecap="round" stroke-linejoin="round"/>
<path d="M736.908 509.894L724.115 538.027L711.1 566.622L697.865 595.715L684.388 625.307" stroke="url(#paint48_linear_94_585)" stroke-opacity="0.3" stroke-width="1.08501" stroke-linecap="round" stroke-linejoin="round"/>
<path d="M669.638 420.436L653.541 395.366L637.665 370.611L621.974 346.17L606.486 322.042" stroke="url(#paint49_linear_94_585)" stroke-opacity="0.3" stroke-width="1.08501" stroke-linecap="round" stroke-linejoin="round"/>
<path d="M309.848 155.605L290.52 134.117L286.274 128.69" stroke="url(#paint50_linear_94_585)" stroke-opacity="0.3" stroke-width="1.08501" stroke-linecap="round" stroke-linejoin="round"/>
<path d="M633.529 275.984L649.608 299.392" stroke="url(#paint51_linear_94_585)" stroke-opacity="0.3" stroke-width="1.08501" stroke-linecap="round" stroke-linejoin="round"/>
<path d="M685.976 151.304L692.51 178.607L693.305 224.609L684.517 273.603L665.891 323.095L637.665 370.612L611.858 400.554" stroke="url(#paint52_linear_94_585)" stroke-opacity="0.3" stroke-width="1.08501" stroke-linecap="round" stroke-linejoin="round"/>
<path d="M322.531 186.71L303.757 166.293L290.52 134.117L284.706 127.637" stroke="url(#paint53_linear_94_585)" stroke-opacity="0.3" stroke-width="1.08501" stroke-linecap="round" stroke-linejoin="round"/>
<path d="M543.85 526.157L521.494 538.322L456.182 559.477L386.273 568.135L314.518 563.095L243.963 543.915L177.746 511.037L118.913 465.865L70.1595 410.669L33.6081 348.55L10.5513 283.145L1.30267 218.332L5.23472 157.93L20.8153 105.281L45.7918 63.0993L77.3775 33.2307L112.544 16.598L148.32 13.1826L172.355 37.6055L196.52 62.1578L220.813 86.8393L245.237 111.668" stroke="url(#paint54_linear_94_585)" stroke-opacity="0.3" stroke-width="1.08501" stroke-linecap="round" stroke-linejoin="round"/>
<path d="M306.913 190.125L303.757 166.292L285.149 146.078L266.725 126.049L255.779 114.161" stroke="url(#paint55_linear_94_585)" stroke-opacity="0.3" stroke-width="1.08501" stroke-linecap="round" stroke-linejoin="round"/>
<path d="M323.028 196.125L306.913 190.125L291.018 184.2L275.327 178.366L259.839 172.607L249.575 112.685" stroke="url(#paint56_linear_94_585)" stroke-opacity="0.3" stroke-width="1.08501" stroke-linecap="round" stroke-linejoin="round"/>
<path d="M523.949 502.086L512.578 508.307L451.806 528.022L387.417 536.034L321.92 531.456L258.011 514.103L198.402 484.548L145.68 444.12L102.114 394.942L69.4391 339.672L48.7268 281.486L40.2351 223.723L43.4472 169.653L57.0891 122.284L79.2599 83.9978L107.615 56.6026L139.533 41.0592L172.355 37.6069L203.571 45.7112L230.874 64.2819L250.922 86.7483L271.136 109.381" stroke="url(#paint57_linear_94_585)" stroke-opacity="0.3" stroke-width="1.08501" stroke-linecap="round" stroke-linejoin="round"/>
<path d="M670.285 143.531L675.859 152.336L692.51 178.605L709.365 205.206L709.974 249.585L701.169 297.693L682.394 347.129L653.541 395.366L628.859 423.887" stroke="url(#paint58_linear_94_585)" stroke-opacity="0.3" stroke-width="1.08501" stroke-linecap="round" stroke-linejoin="round"/>
<path d="M674.106 145.064L675.86 152.337L676.838 199.928L668.07 249.826L684.518 273.603L701.169 297.693L718.042 322.098" stroke="url(#paint59_linear_94_585)" stroke-opacity="0.3" stroke-width="1.08501" stroke-linecap="round" stroke-linejoin="round"/>
<path d="M697.754 162.657L700.283 166.792L709.365 205.208L726.423 232.123" stroke="url(#paint60_linear_94_585)" stroke-opacity="0.3" stroke-width="1.08501" stroke-linecap="round" stroke-linejoin="round"/>
<path d="M698.399 163.266L700.264 166.773L717.948 195.848" stroke="url(#paint61_linear_94_585)" stroke-opacity="0.3" stroke-width="1.08501" stroke-linecap="round" stroke-linejoin="round"/>
<path d="M504.733 478.105L503.755 478.641L447.47 496.953L388.545 504.319L329.251 500.184L271.894 484.64L218.821 458.353L172.154 422.651L133.719 379.38L104.903 330.885L86.5534 279.823L78.8738 229.058L81.4398 181.32L93.236 139.212L112.711 104.894L137.91 80.0096L166.615 65.611L196.521 62.1587L225.356 69.4504L247.287 93.3379L257.901 104.912L269.365 117.392" stroke="url(#paint62_linear_94_585)" stroke-opacity="0.3" stroke-width="1.08501" stroke-linecap="round" stroke-linejoin="round"/>
<defs>
<linearGradient id="paint0_linear_94_585" x1="884.35" y1="139.748" x2="884.35" y2="535.425" gradientUnits="userSpaceOnUse">
<stop stop-color="#D59397"/>
<stop offset="0.495" stop-color="#0730C0"/>
</linearGradient>
<linearGradient id="paint1_linear_94_585" x1="872.636" y1="104.875" x2="872.636" y2="566.769" gradientUnits="userSpaceOnUse">
<stop stop-color="#D59397"/>
<stop offset="0.495" stop-color="#0730C0"/>
</linearGradient>
<linearGradient id="paint2_linear_94_585" x1="860.85" y1="70.2082" x2="860.85" y2="598.633" gradientUnits="userSpaceOnUse">
<stop stop-color="#D59397"/>
<stop offset="0.495" stop-color="#0730C0"/>
</linearGradient>
<linearGradient id="paint3_linear_94_585" x1="848.979" y1="35.7235" x2="848.979" y2="631.03" gradientUnits="userSpaceOnUse">
<stop stop-color="#D59397"/>
<stop offset="0.495" stop-color="#0730C0"/>
</linearGradient>
<linearGradient id="paint4_linear_94_585" x1="623.589" y1="299.391" x2="623.589" y2="374.617" gradientUnits="userSpaceOnUse">
<stop stop-color="#D59397"/>
<stop offset="0.495" stop-color="#0730C0"/>
</linearGradient>
<linearGradient id="paint5_linear_94_585" x1="268.875" y1="115.75" x2="268.875" y2="178.367" gradientUnits="userSpaceOnUse">
<stop stop-color="#D59397"/>
<stop offset="0.495" stop-color="#0730C0"/>
</linearGradient>
<linearGradient id="paint6_linear_94_585" x1="674.364" y1="175.58" x2="674.364" y2="371.462" gradientUnits="userSpaceOnUse">
<stop stop-color="#D59397"/>
<stop offset="0.495" stop-color="#0730C0"/>
</linearGradient>
<linearGradient id="paint7_linear_94_585" x1="527.762" y1="47.7416" x2="527.762" y2="172.311" gradientUnits="userSpaceOnUse">
<stop stop-color="#D59397"/>
<stop offset="0.495" stop-color="#0730C0"/>
</linearGradient>
<linearGradient id="paint8_linear_94_585" x1="506.763" y1="94.4078" x2="506.763" y2="200.831" gradientUnits="userSpaceOnUse">
<stop stop-color="#D59397"/>
<stop offset="0.495" stop-color="#0730C0"/>
</linearGradient>
<linearGradient id="paint9_linear_94_585" x1="554.326" y1="16.3218" x2="554.326" y2="151.986" gradientUnits="userSpaceOnUse">
<stop stop-color="#D59397"/>
<stop offset="0.495" stop-color="#0730C0"/>
</linearGradient>
<linearGradient id="paint10_linear_94_585" x1="493.721" y1="154.422" x2="493.721" y2="236.127" gradientUnits="userSpaceOnUse">
<stop stop-color="#D59397"/>
<stop offset="0.495" stop-color="#0730C0"/>
</linearGradient>
<linearGradient id="paint11_linear_94_585" x1="301.189" y1="86.8401" x2="301.189" y2="472.973" gradientUnits="userSpaceOnUse">
<stop stop-color="#D59397"/>
<stop offset="0.495" stop-color="#0730C0"/>
</linearGradient>
<linearGradient id="paint12_linear_94_585" x1="583.937" y1="1" x2="583.937" y2="140.91" gradientUnits="userSpaceOnUse">
<stop stop-color="#D59397"/>
<stop offset="0.495" stop-color="#0730C0"/>
</linearGradient>
<linearGradient id="paint13_linear_94_585" x1="490.593" y1="224.756" x2="490.593" y2="276.519" gradientUnits="userSpaceOnUse">
<stop stop-color="#D59397"/>
<stop offset="0.495" stop-color="#0730C0"/>
</linearGradient>
<linearGradient id="paint14_linear_94_585" x1="616.251" y1="1.44357" x2="616.251" y2="105.19" gradientUnits="userSpaceOnUse">
<stop stop-color="#D59397"/>
<stop offset="0.495" stop-color="#0730C0"/>
</linearGradient>
<linearGradient id="paint15_linear_94_585" x1="498.78" y1="301.495" x2="498.78" y2="320.029" gradientUnits="userSpaceOnUse">
<stop stop-color="#D59397"/>
<stop offset="0.495" stop-color="#0730C0"/>
</linearGradient>
<linearGradient id="paint16_linear_94_585" x1="92.9862" y1="105.283" x2="92.9862" y2="172.921" gradientUnits="userSpaceOnUse">
<stop stop-color="#D59397"/>
<stop offset="0.495" stop-color="#0730C0"/>
</linearGradient>
<linearGradient id="paint17_linear_94_585" x1="112.627" y1="63.0993" x2="112.627" y2="146.595" gradientUnits="userSpaceOnUse">
<stop stop-color="#D59397"/>
<stop offset="0.495" stop-color="#0730C0"/>
</linearGradient>
<linearGradient id="paint18_linear_94_585" x1="81.0233" y1="157.93" x2="81.0233" y2="204.468" gradientUnits="userSpaceOnUse">
<stop stop-color="#D59397"/>
<stop offset="0.495" stop-color="#0730C0"/>
</linearGradient>
<linearGradient id="paint19_linear_94_585" x1="78.3005" y1="218.333" x2="78.3005" y2="239.599" gradientUnits="userSpaceOnUse">
<stop stop-color="#D59397"/>
<stop offset="0.495" stop-color="#0730C0"/>
</linearGradient>
<linearGradient id="paint20_linear_94_585" x1="282.895" y1="121.01" x2="282.895" y2="184.199" gradientUnits="userSpaceOnUse">
<stop stop-color="#D59397"/>
<stop offset="0.495" stop-color="#0730C0"/>
</linearGradient>
<linearGradient id="paint21_linear_94_585" x1="623.747" y1="16.4132" x2="623.747" y2="74.4152" gradientUnits="userSpaceOnUse">
<stop stop-color="#D59397"/>
<stop offset="0.495" stop-color="#0730C0"/>
</linearGradient>
<linearGradient id="paint22_linear_94_585" x1="137.973" y1="33.2318" x2="137.973" y2="126.899" gradientUnits="userSpaceOnUse">
<stop stop-color="#D59397"/>
<stop offset="0.495" stop-color="#0730C0"/>
</linearGradient>
<linearGradient id="paint23_linear_94_585" x1="85.8782" y1="276.574" x2="85.8782" y2="283.146" gradientUnits="userSpaceOnUse">
<stop stop-color="#D59397"/>
<stop offset="0.495" stop-color="#0730C0"/>
</linearGradient>
<linearGradient id="paint24_linear_94_585" x1="104.182" y1="313.57" x2="104.182" y2="348.552" gradientUnits="userSpaceOnUse">
<stop stop-color="#D59397"/>
<stop offset="0.495" stop-color="#0730C0"/>
</linearGradient>
<linearGradient id="paint25_linear_94_585" x1="166.789" y1="16.5997" x2="166.789" y2="114.974" gradientUnits="userSpaceOnUse">
<stop stop-color="#D59397"/>
<stop offset="0.495" stop-color="#0730C0"/>
</linearGradient>
<linearGradient id="paint26_linear_94_585" x1="519.067" y1="364.593" x2="519.067" y2="380.118" gradientUnits="userSpaceOnUse">
<stop stop-color="#D59397"/>
<stop offset="0.495" stop-color="#0730C0"/>
</linearGradient>
<linearGradient id="paint27_linear_94_585" x1="686.982" y1="139.802" x2="686.982" y2="446.353" gradientUnits="userSpaceOnUse">
<stop stop-color="#D59397"/>
<stop offset="0.495" stop-color="#0730C0"/>
</linearGradient>
<linearGradient id="paint28_linear_94_585" x1="133.007" y1="348.754" x2="133.007" y2="410.67" gradientUnits="userSpaceOnUse">
<stop stop-color="#D59397"/>
<stop offset="0.495" stop-color="#0730C0"/>
</linearGradient>
<linearGradient id="paint29_linear_94_585" x1="206.405" y1="22.1554" x2="206.405" y2="64.2813" gradientUnits="userSpaceOnUse">
<stop stop-color="#D59397"/>
<stop offset="0.495" stop-color="#0730C0"/>
</linearGradient>
<linearGradient id="paint30_linear_94_585" x1="199.621" y1="13.1826" x2="199.621" y2="86.7469" gradientUnits="userSpaceOnUse">
<stop stop-color="#D59397"/>
<stop offset="0.495" stop-color="#0730C0"/>
</linearGradient>
<linearGradient id="paint31_linear_94_585" x1="171.534" y1="380.432" x2="171.534" y2="465.867" gradientUnits="userSpaceOnUse">
<stop stop-color="#D59397"/>
<stop offset="0.495" stop-color="#0730C0"/>
</linearGradient>
<linearGradient id="paint32_linear_94_585" x1="551.447" y1="408.031" x2="551.447" y2="455.917" gradientUnits="userSpaceOnUse">
<stop stop-color="#D59397"/>
<stop offset="0.495" stop-color="#0730C0"/>
</linearGradient>
<linearGradient id="paint33_linear_94_585" x1="218.331" y1="406.922" x2="218.331" y2="511.038" gradientUnits="userSpaceOnUse">
<stop stop-color="#D59397"/>
<stop offset="0.495" stop-color="#0730C0"/>
</linearGradient>
<linearGradient id="paint34_linear_94_585" x1="312.949" y1="111.67" x2="312.949" y2="442.016" gradientUnits="userSpaceOnUse">
<stop stop-color="#D59397"/>
<stop offset="0.495" stop-color="#0730C0"/>
</linearGradient>
<linearGradient id="paint35_linear_94_585" x1="271.561" y1="426.786" x2="271.561" y2="543.916" gradientUnits="userSpaceOnUse">
<stop stop-color="#D59397"/>
<stop offset="0.495" stop-color="#0730C0"/>
</linearGradient>
<linearGradient id="paint36_linear_94_585" x1="329.074" y1="438.786" x2="329.074" y2="563.097" gradientUnits="userSpaceOnUse">
<stop stop-color="#D59397"/>
<stop offset="0.495" stop-color="#0730C0"/>
</linearGradient>
<linearGradient id="paint37_linear_94_585" x1="388.525" y1="442.016" x2="388.525" y2="568.137" gradientUnits="userSpaceOnUse">
<stop stop-color="#D59397"/>
<stop offset="0.495" stop-color="#0730C0"/>
</linearGradient>
<linearGradient id="paint38_linear_94_585" x1="595.206" y1="448.108" x2="595.206" y2="524.46" gradientUnits="userSpaceOnUse">
<stop stop-color="#D59397"/>
<stop offset="0.495" stop-color="#0730C0"/>
</linearGradient>
<linearGradient id="paint39_linear_94_585" x1="837.046" y1="1" x2="837.046" y2="664" gradientUnits="userSpaceOnUse">
<stop stop-color="#D59397"/>
<stop offset="0.495" stop-color="#0730C0"/>
</linearGradient>
<linearGradient id="paint40_linear_94_585" x1="618.835" y1="226.363" x2="618.835" y2="346.244" gradientUnits="userSpaceOnUse">
<stop stop-color="#D59397"/>
<stop offset="0.495" stop-color="#0730C0"/>
</linearGradient>
<linearGradient id="paint41_linear_94_585" x1="447.579" y1="435.923" x2="447.579" y2="559.478" gradientUnits="userSpaceOnUse">
<stop stop-color="#D59397"/>
<stop offset="0.495" stop-color="#0730C0"/>
</linearGradient>
<linearGradient id="paint42_linear_94_585" x1="988.354" y1="516.022" x2="988.354" y2="638.93" gradientUnits="userSpaceOnUse">
<stop stop-color="#D59397"/>
<stop offset="0.495" stop-color="#0730C0"/>
</linearGradient>
<linearGradient id="paint43_linear_94_585" x1="919.499" y1="531.603" x2="919.499" y2="658.905" gradientUnits="userSpaceOnUse">
<stop stop-color="#D59397"/>
<stop offset="0.495" stop-color="#0730C0"/>
</linearGradient>
<linearGradient id="paint44_linear_94_585" x1="848.536" y1="535.424" x2="848.536" y2="664" gradientUnits="userSpaceOnUse">
<stop stop-color="#D59397"/>
<stop offset="0.495" stop-color="#0730C0"/>
</linearGradient>
<linearGradient id="paint45_linear_94_585" x1="512.218" y1="475.872" x2="512.218" y2="538.323" gradientUnits="userSpaceOnUse">
<stop stop-color="#D59397"/>
<stop offset="0.495" stop-color="#0730C0"/>
</linearGradient>
<linearGradient id="paint46_linear_94_585" x1="648.916" y1="482.739" x2="648.916" y2="581.889" gradientUnits="userSpaceOnUse">
<stop stop-color="#D59397"/>
<stop offset="0.495" stop-color="#0730C0"/>
</linearGradient>
<linearGradient id="paint47_linear_94_585" x1="778.046" y1="527.911" x2="778.046" y2="652.924" gradientUnits="userSpaceOnUse">
<stop stop-color="#D59397"/>
<stop offset="0.495" stop-color="#0730C0"/>
</linearGradient>
<linearGradient id="paint48_linear_94_585" x1="710.648" y1="509.894" x2="710.648" y2="625.307" gradientUnits="userSpaceOnUse">
<stop stop-color="#D59397"/>
<stop offset="0.495" stop-color="#0730C0"/>
</linearGradient>
<linearGradient id="paint49_linear_94_585" x1="638.062" y1="322.042" x2="638.062" y2="420.436" gradientUnits="userSpaceOnUse">
<stop stop-color="#D59397"/>
<stop offset="0.495" stop-color="#0730C0"/>
</linearGradient>
<linearGradient id="paint50_linear_94_585" x1="298.061" y1="128.69" x2="298.061" y2="155.605" gradientUnits="userSpaceOnUse">
<stop stop-color="#D59397"/>
<stop offset="0.495" stop-color="#0730C0"/>
</linearGradient>
<linearGradient id="paint51_linear_94_585" x1="641.568" y1="275.984" x2="641.568" y2="299.392" gradientUnits="userSpaceOnUse">
<stop stop-color="#D59397"/>
<stop offset="0.495" stop-color="#0730C0"/>
</linearGradient>
<linearGradient id="paint52_linear_94_585" x1="652.581" y1="151.304" x2="652.581" y2="400.554" gradientUnits="userSpaceOnUse">
<stop stop-color="#D59397"/>
<stop offset="0.495" stop-color="#0730C0"/>
</linearGradient>
<linearGradient id="paint53_linear_94_585" x1="303.618" y1="127.637" x2="303.618" y2="186.71" gradientUnits="userSpaceOnUse">
<stop stop-color="#D59397"/>
<stop offset="0.495" stop-color="#0730C0"/>
</linearGradient>
<linearGradient id="paint54_linear_94_585" x1="272.576" y1="13.1826" x2="272.576" y2="568.135" gradientUnits="userSpaceOnUse">
<stop stop-color="#D59397"/>
<stop offset="0.495" stop-color="#0730C0"/>
</linearGradient>
<linearGradient id="paint55_linear_94_585" x1="281.346" y1="114.161" x2="281.346" y2="190.125" gradientUnits="userSpaceOnUse">
<stop stop-color="#D59397"/>
<stop offset="0.495" stop-color="#0730C0"/>
</linearGradient>
<linearGradient id="paint56_linear_94_585" x1="286.302" y1="112.685" x2="286.302" y2="196.125" gradientUnits="userSpaceOnUse">
<stop stop-color="#D59397"/>
<stop offset="0.495" stop-color="#0730C0"/>
</linearGradient>
<linearGradient id="paint57_linear_94_585" x1="282.092" y1="37.6069" x2="282.092" y2="536.034" gradientUnits="userSpaceOnUse">
<stop stop-color="#D59397"/>
<stop offset="0.495" stop-color="#0730C0"/>
</linearGradient>
<linearGradient id="paint58_linear_94_585" x1="669.417" y1="143.531" x2="669.417" y2="423.887" gradientUnits="userSpaceOnUse">
<stop stop-color="#D59397"/>
<stop offset="0.495" stop-color="#0730C0"/>
</linearGradient>
<linearGradient id="paint59_linear_94_585" x1="693.056" y1="145.064" x2="693.056" y2="322.098" gradientUnits="userSpaceOnUse">
<stop stop-color="#D59397"/>
<stop offset="0.495" stop-color="#0730C0"/>
</linearGradient>
<linearGradient id="paint60_linear_94_585" x1="712.088" y1="162.657" x2="712.088" y2="232.123" gradientUnits="userSpaceOnUse">
<stop stop-color="#D59397"/>
<stop offset="0.495" stop-color="#0730C0"/>
</linearGradient>
<linearGradient id="paint61_linear_94_585" x1="708.174" y1="163.266" x2="708.174" y2="195.848" gradientUnits="userSpaceOnUse">
<stop stop-color="#D59397"/>
<stop offset="0.495" stop-color="#0730C0"/>
</linearGradient>
<linearGradient id="paint62_linear_94_585" x1="291.804" y1="62.1587" x2="291.804" y2="504.319" gradientUnits="userSpaceOnUse">
<stop stop-color="#D59397"/>
<stop offset="0.495" stop-color="#0730C0"/>
</linearGradient>
</defs>
</svg>
