<svg width="599" height="835" viewBox="0 0 599 835" fill="none" xmlns="http://www.w3.org/2000/svg">
<g clip-path="url(#clip0_79_328)">
<mask id="mask0_79_328" style="mask-type:alpha" maskUnits="userSpaceOnUse" x="70" y="164" width="369" height="537">
<path d="M308.544 199.955L80.5319 594.883C60.9183 628.854 71.8841 671.93 105.015 691.059C138.147 710.187 180.934 698.146 200.548 664.174L428.46 269.419C448.073 235.447 437.107 192.371 403.976 173.243C370.945 153.942 328.157 165.983 308.544 199.955Z" fill="url(#paint0_linear_79_328)"/>
</mask>
<g mask="url(#mask0_79_328)">
<g filter="url(#filter0_ii_79_328)">
<path d="M308.544 199.954L80.1201 595.596C60.5066 629.567 71.4724 672.643 104.604 691.772C137.735 710.9 180.523 698.859 200.136 664.887L428.46 269.419C448.073 235.447 437.107 192.371 403.976 173.243C370.945 153.941 328.157 165.983 308.544 199.954Z" fill="url(#paint1_linear_79_328)"/>
<path d="M308.544 199.954L80.1201 595.596C60.5066 629.567 71.4724 672.643 104.604 691.772C137.735 710.9 180.523 698.859 200.136 664.887L428.46 269.419C448.073 235.447 437.107 192.371 403.976 173.243C370.945 153.941 328.157 165.983 308.544 199.954Z" fill="#1F2E7E" fill-opacity="0.2"/>
</g>
</g>
<mask id="mask1_79_328" style="mask-type:alpha" maskUnits="userSpaceOnUse" x="379" y="342" width="368" height="537">
<path d="M617.258 378.191L389.246 773.119C369.633 807.091 380.598 850.166 413.73 869.295C446.861 888.423 489.649 876.382 509.262 842.41L737.174 447.655C756.787 413.684 745.822 370.608 712.69 351.479C679.659 332.178 636.871 344.219 617.258 378.191Z" fill="url(#paint2_linear_79_328)"/>
</mask>
<g mask="url(#mask1_79_328)">
<g filter="url(#filter1_ii_79_328)">
<path d="M617.258 378.191L388.834 773.832C369.221 807.804 380.187 850.88 413.318 870.008C446.449 889.136 489.237 877.095 508.85 843.123L737.174 447.655C756.788 413.683 745.822 370.607 712.691 351.479C679.659 332.178 636.872 344.219 617.258 378.191Z" fill="url(#paint3_linear_79_328)"/>
<path d="M617.258 378.191L388.834 773.832C369.221 807.804 380.187 850.88 413.318 870.008C446.449 889.136 489.237 877.095 508.85 843.123L737.174 447.655C756.788 413.683 745.822 370.607 712.691 351.479C679.659 332.178 636.872 344.219 617.258 378.191Z" fill="#1F2E7E" fill-opacity="0.2"/>
</g>
</g>
<mask id="mask2_79_328" style="mask-type:alpha" maskUnits="userSpaceOnUse" x="307" y="110" width="368" height="537">
<path d="M317.083 541.636L545.095 146.708C564.709 112.736 607.496 100.695 640.628 119.823C673.759 138.952 684.725 182.028 665.111 215.999L437.199 610.754C417.586 644.726 374.798 656.767 341.667 637.639C308.436 618.684 297.47 575.608 317.083 541.636Z" fill="url(#paint4_linear_79_328)"/>
</mask>
<g mask="url(#mask2_79_328)">
<g filter="url(#filter2_ii_79_328)">
<path d="M317.083 541.636L545.507 145.995C565.12 112.023 607.908 99.9819 641.039 119.11C674.171 138.239 685.136 181.315 665.523 215.286L437.199 610.754C417.586 644.726 374.798 656.767 341.667 637.639C308.435 618.684 297.47 575.608 317.083 541.636Z" fill="url(#paint5_linear_79_328)"/>
<path d="M317.083 541.636L545.507 145.995C565.12 112.023 607.908 99.9819 641.039 119.11C674.171 138.239 685.136 181.315 665.523 215.286L437.199 610.754C417.586 644.726 374.798 656.767 341.667 637.639C308.435 618.684 297.47 575.608 317.083 541.636Z" fill="#1F2E7E" fill-opacity="0.2"/>
</g>
</g>
</g>
<defs>
<filter id="filter0_ii_79_328" x="70.3873" y="164.032" width="394.154" height="584.83" filterUnits="userSpaceOnUse" color-interpolation-filters="sRGB">
<feFlood flood-opacity="0" result="BackgroundImageFix"/>
<feBlend mode="normal" in="SourceGraphic" in2="BackgroundImageFix" result="shape"/>
<feColorMatrix in="SourceAlpha" type="matrix" values="0 0 0 0 0 0 0 0 0 0 0 0 0 0 0 0 0 0 127 0" result="hardAlpha"/>
<feOffset dy="48"/>
<feGaussianBlur stdDeviation="38.9971"/>
<feComposite in2="hardAlpha" operator="arithmetic" k2="-1" k3="1"/>
<feColorMatrix type="matrix" values="0 0 0 0 1 0 0 0 0 1 0 0 0 0 1 0 0 0 0.8 0"/>
<feBlend mode="lighten" in2="shape" result="effect1_innerShadow_79_328"/>
<feColorMatrix in="SourceAlpha" type="matrix" values="0 0 0 0 0 0 0 0 0 0 0 0 0 0 0 0 0 0 127 0" result="hardAlpha"/>
<feOffset dx="26.3494" dy="15.3705"/>
<feGaussianBlur stdDeviation="15.3705"/>
<feComposite in2="hardAlpha" operator="arithmetic" k2="-1" k3="1"/>
<feColorMatrix type="matrix" values="0 0 0 0 0.168627 0 0 0 0 0.180392 0 0 0 0 0.239216 0 0 0 0.9 0"/>
<feBlend mode="multiply" in2="effect1_innerShadow_79_328" result="effect2_innerShadow_79_328"/>
</filter>
<filter id="filter1_ii_79_328" x="379.102" y="342.269" width="394.154" height="584.83" filterUnits="userSpaceOnUse" color-interpolation-filters="sRGB">
<feFlood flood-opacity="0" result="BackgroundImageFix"/>
<feBlend mode="normal" in="SourceGraphic" in2="BackgroundImageFix" result="shape"/>
<feColorMatrix in="SourceAlpha" type="matrix" values="0 0 0 0 0 0 0 0 0 0 0 0 0 0 0 0 0 0 127 0" result="hardAlpha"/>
<feOffset dy="48"/>
<feGaussianBlur stdDeviation="38.9971"/>
<feComposite in2="hardAlpha" operator="arithmetic" k2="-1" k3="1"/>
<feColorMatrix type="matrix" values="0 0 0 0 1 0 0 0 0 1 0 0 0 0 1 0 0 0 0.8 0"/>
<feBlend mode="lighten" in2="shape" result="effect1_innerShadow_79_328"/>
<feColorMatrix in="SourceAlpha" type="matrix" values="0 0 0 0 0 0 0 0 0 0 0 0 0 0 0 0 0 0 127 0" result="hardAlpha"/>
<feOffset dx="26.3494" dy="15.3705"/>
<feGaussianBlur stdDeviation="15.3705"/>
<feComposite in2="hardAlpha" operator="arithmetic" k2="-1" k3="1"/>
<feColorMatrix type="matrix" values="0 0 0 0 0.168627 0 0 0 0 0.180392 0 0 0 0 0.239216 0 0 0 0.9 0"/>
<feBlend mode="multiply" in2="effect1_innerShadow_79_328" result="effect2_innerShadow_79_328"/>
</filter>
<filter id="filter2_ii_79_328" x="307.354" y="110.019" width="394.251" height="584.711" filterUnits="userSpaceOnUse" color-interpolation-filters="sRGB">
<feFlood flood-opacity="0" result="BackgroundImageFix"/>
<feBlend mode="normal" in="SourceGraphic" in2="BackgroundImageFix" result="shape"/>
<feColorMatrix in="SourceAlpha" type="matrix" values="0 0 0 0 0 0 0 0 0 0 0 0 0 0 0 0 0 0 127 0" result="hardAlpha"/>
<feOffset dy="48"/>
<feGaussianBlur stdDeviation="38.9971"/>
<feComposite in2="hardAlpha" operator="arithmetic" k2="-1" k3="1"/>
<feColorMatrix type="matrix" values="0 0 0 0 1 0 0 0 0 1 0 0 0 0 1 0 0 0 0.8 0"/>
<feBlend mode="lighten" in2="shape" result="effect1_innerShadow_79_328"/>
<feColorMatrix in="SourceAlpha" type="matrix" values="0 0 0 0 0 0 0 0 0 0 0 0 0 0 0 0 0 0 127 0" result="hardAlpha"/>
<feOffset dx="26.3494" dy="15.3705"/>
<feGaussianBlur stdDeviation="15.3705"/>
<feComposite in2="hardAlpha" operator="arithmetic" k2="-1" k3="1"/>
<feColorMatrix type="matrix" values="0 0 0 0 0.168627 0 0 0 0 0.180392 0 0 0 0 0.239216 0 0 0 0.9 0"/>
<feBlend mode="multiply" in2="effect1_innerShadow_79_328" result="effect2_innerShadow_79_328"/>
</filter>
<linearGradient id="paint0_linear_79_328" x1="259.864" y1="510.486" x2="266.449" y2="191.528" gradientUnits="userSpaceOnUse">
<stop offset="0.132716" stop-opacity="0"/>
<stop offset="1"/>
</linearGradient>
<linearGradient id="paint1_linear_79_328" x1="88.6404" y1="460.389" x2="247.004" y2="521.608" gradientUnits="userSpaceOnUse">
<stop stop-color="#949494"/>
<stop offset="0.635171" stop-color="#181818"/>
<stop offset="1" stop-color="#1D1D1D"/>
</linearGradient>
<linearGradient id="paint2_linear_79_328" x1="568.578" y1="688.723" x2="575.164" y2="369.764" gradientUnits="userSpaceOnUse">
<stop offset="0.132716" stop-opacity="0"/>
<stop offset="1"/>
</linearGradient>
<linearGradient id="paint3_linear_79_328" x1="397.355" y1="638.625" x2="555.718" y2="699.845" gradientUnits="userSpaceOnUse">
<stop stop-color="#949494"/>
<stop offset="0.635171" stop-color="#181818"/>
<stop offset="1" stop-color="#1D1D1D"/>
</linearGradient>
<linearGradient id="paint4_linear_79_328" x1="561.672" y1="344.212" x2="288.738" y2="509.395" gradientUnits="userSpaceOnUse">
<stop offset="0.132716" stop-opacity="0"/>
<stop offset="1"/>
</linearGradient>
<linearGradient id="paint5_linear_79_328" x1="432.674" y1="220.977" x2="564.874" y2="327.514" gradientUnits="userSpaceOnUse">
<stop stop-color="#949494"/>
<stop offset="0.635171" stop-color="#181818"/>
<stop offset="1" stop-color="#1D1D1D"/>
</linearGradient>
<clipPath id="clip0_79_328">
<rect width="900" height="900" fill="white"/>
</clipPath>
</defs>
</svg>
