<svg width="206" height="296" viewBox="0 0 206 296" fill="none" xmlns="http://www.w3.org/2000/svg">
<path opacity="0.510324" fill-rule="evenodd" clip-rule="evenodd" d="M74.2229 368.248C75.0731 368.108 75.0398 366.669 74.7446 365.69C74.2876 364.177 73.2357 363.285 72.6597 363.922C71.8186 364.852 72.7432 368.195 74.2191 368.248L74.2196 368.248C74.2197 368.248 74.2197 368.248 74.2201 368.248L74.2205 368.248C74.2205 368.248 74.221 368.248 74.2211 368.248L74.2215 368.248L74.2219 368.248C74.2219 368.248 74.2224 368.248 74.2225 368.248L74.2229 368.248ZM98.3338 363.572C99.3146 363.684 99.6465 362.434 99.3915 361.21C99.0697 359.669 97.965 358.639 97.2019 359.169C96.1458 359.903 96.7168 363.156 98.3338 363.572ZM51.9842 367.559C52.5756 367.447 52.666 366.162 52.1776 364.808C51.6609 363.375 50.7617 362.616 50.3284 363.247C49.5879 364.324 50.888 367.709 51.9842 367.559ZM124.932 353.261C126.056 353.456 126.602 352.144 126.389 350.845C126.135 349.289 124.961 348.283 124.064 348.85C122.831 349.63 123.172 352.76 124.932 353.261ZM32.3299 361.473C32.8073 361.278 32.6893 359.913 32.3064 358.759C31.8401 357.354 31.1194 356.552 30.7946 357.076C30.1992 358.036 31.4764 361.693 32.3299 361.473ZM154.151 337.124C155.563 337.494 156.222 336.068 156.155 334.896C156.064 333.302 154.823 332.161 153.741 332.677C152.298 333.364 152.317 336.317 154.151 337.124ZM16.6094 349.606C16.921 349.338 16.7385 347.893 16.3901 346.709C16.2635 346.277 16.1138 345.878 15.9697 345.586C15.7353 345.112 15.4166 344.736 15.2878 345.236C15.0398 346.201 15.9883 349.907 16.6094 349.606ZM185.981 315.224C187.461 315.652 188.311 314.289 188.355 313.139C188.418 311.449 187.037 310.169 185.762 310.736C184.164 311.446 184.031 314.384 185.981 315.224ZM5.68273 331.734C5.81898 331.394 5.63172 329.868 5.37943 328.65C5.19739 327.769 5.00229 327.146 4.88283 327.059C4.57211 326.838 4.94724 330.103 5.48369 331.525L5.48402 331.523C5.58135 331.747 5.6298 331.798 5.68273 331.734ZM219.091 287.553C220.621 288.032 221.61 286.724 221.736 285.596C221.943 283.74 220.284 282.31 218.827 283.088C217.257 283.926 217.151 286.737 219.091 287.553ZM0.433609 304.725L0.528591 305.878C0.497435 305.51 0.467263 305.143 0.437636 304.776L0.433609 304.725ZM251.284 254.228C252.745 254.709 253.866 253.646 254.067 252.385C254.369 250.495 252.673 248.955 251.092 249.685C249.371 250.479 249.198 253.374 251.284 254.228ZM279.75 215.632C281.255 216.143 282.442 214.998 282.567 213.651C282.739 211.797 280.997 210.357 279.461 211.083C277.784 211.875 277.679 214.819 279.75 215.632ZM301.491 174.11C302.784 174.551 304.022 173.753 304.141 172.403C304.165 172.118 304.136 171.827 304.054 171.54C303.506 169.638 300.958 168.948 300.012 170.935L300.015 170.936C299.491 172.394 300.354 173.696 301.491 174.11ZM314.188 133.489C315.729 134.087 316.633 133.164 316.782 132.317C316.894 131.685 317.046 130.821 316.282 130.043C315.184 128.927 314.08 129.272 313.87 129.353C312.666 129.816 312.717 131.298 312.74 131.591C312.756 131.796 312.899 132.851 314.188 133.489ZM318.388 95.6345C319.722 96.1282 320.636 95.4684 320.718 94.5736C320.848 93.1642 319.092 91.9256 317.782 92.5029C316.572 93.0366 316.715 94.8722 318.388 95.6345ZM315.336 63.3379C316.55 63.7589 317.402 63.1797 317.408 62.3959C317.409 62.3111 317.391 62.1978 317.376 62.1135L317.376 62.1147C317.376 62.115 317.376 62.1154 317.376 62.1159C317.048 60.9347 315.574 60.3842 314.671 60.8201C313.683 61.2972 313.867 62.7307 315.336 63.3379ZM307.682 37.7093C308.863 38.111 309.572 37.6042 309.63 37.0837C309.729 36.1841 308.197 35.4166 307.218 35.8753C306.516 36.2046 306.399 37.1401 307.682 37.7093ZM298.656 19.6031C299.6 19.881 300.293 19.5675 300.43 19.235C300.438 19.2164 300.447 19.1898 300.452 19.1693C300.606 18.4999 299.064 18.0128 298.252 18.4743C297.824 18.718 297.721 19.2599 298.656 19.6031ZM290.613 8.63266C291.335 8.80762 292.056 8.67239 292.298 8.50745C292.364 8.46283 292.403 8.41589 292.414 8.36832C292.512 7.95389 290.866 7.77957 290.293 8.14261C290.133 8.24435 290.02 8.46222 290.613 8.63266ZM284.809 3.45911C285.346 3.55688 286.13 3.56592 286.49 3.54138C286.781 3.52161 286.798 3.48926 286.806 3.47391C286.735 3.30533 284.644 3.20547 284.568 3.36636C284.581 3.39771 284.623 3.4216 284.809 3.45911ZM74.7089 339.817C75.9062 339.869 76.1122 338.112 75.8004 336.823C75.4098 335.207 74.3077 334.233 73.5327 334.817C72.3463 335.712 72.9207 339.42 74.7089 339.817ZM51.1131 340.38C51.8192 340.275 52.1153 338.93 51.7603 337.442C51.3903 335.893 50.4827 334.887 49.8175 335.29C48.7253 335.952 49.2985 339.999 50.9528 340.379L50.9534 340.379C50.9538 340.379 50.9542 340.379 50.9547 340.379C51.0285 340.388 51.057 340.385 51.1131 340.38ZM100.977 333.135C102.19 333.286 102.757 331.769 102.508 330.312C102.207 328.561 100.925 327.475 99.9655 328.159C98.6408 329.105 99.0599 332.649 100.977 333.135ZM30.3923 334.875C31.0126 334.673 31.0745 333.1 30.7426 331.758C30.3355 330.111 29.4835 329.205 29.0229 329.931C28.2372 331.167 29.3253 335.096 30.3923 334.875ZM130.703 319.965C131.856 319.282 131.823 317.838 131.786 317.411C131.619 315.519 130.149 314.322 128.977 315.123C127.548 316.1 127.823 319.53 129.795 320.078C130.105 320.133 130.341 320.131 130.7 319.964C130.701 319.964 130.702 319.965 130.703 319.965ZM14.3473 322.911C14.788 322.622 14.7608 320.986 14.4829 319.635C14.2217 318.367 13.8997 317.953 13.7929 317.815L13.792 317.814L13.791 317.81C13.7885 317.805 13.4912 317.413 13.2757 317.921C12.8194 318.997 13.5071 323.222 14.3473 322.911ZM162.296 300.376C163.185 299.703 163.366 298.758 163.361 298.084C163.348 296.178 161.785 294.847 160.426 295.586C158.778 296.483 158.748 299.718 160.829 300.579C161.262 300.69 161.67 300.751 162.297 300.371L162.296 300.374L162.296 300.376ZM3.90023 304.292C4.14082 303.931 4.11356 302.225 3.95017 300.853C3.84069 299.934 3.67587 299.218 3.52967 299.028C3.36468 298.814 3.28718 299.247 3.25578 299.524C3.08366 301.042 3.49123 304.605 3.90023 304.292ZM193.343 274.839C195.09 275.329 196.127 273.772 196.205 272.46C196.322 270.481 194.582 269.031 193.049 269.831C191.269 270.761 191.147 273.961 193.343 274.839ZM0.0759021 278.894C0.125188 278.432 0.157616 276.515 0.165112 275.302L0.165222 275.302C0.175293 273.626 0.145112 273.526 0.135201 273.493C0.0840761 273.739 -0.024538 278.628 0.0695399 278.925L0.0727186 278.909L0.0759021 278.894ZM225.261 243.075C226.882 243.559 228.177 242.264 228.325 240.799C228.529 238.778 226.73 237.246 225.062 238.022C223.147 238.912 222.946 242.184 225.261 243.075ZM253.927 205.821C255.55 206.321 256.877 205.066 257.054 203.625C257.319 201.457 255.258 199.87 253.497 200.888C251.706 201.921 251.66 204.994 253.927 205.821ZM276.327 165.663C277.747 166.101 279.145 165.206 279.319 163.75C279.56 161.734 277.437 160.208 275.714 161.158C273.898 162.158 274.283 164.979 276.327 165.663ZM290.292 126.408C291.974 126.83 292.849 125.784 293.026 124.979C293.029 124.967 293.032 124.955 293.034 124.943L293.043 124.898L293.045 124.884L293.049 124.866L293.055 124.835C293.058 124.819 293.062 124.803 293.066 124.787C293.068 124.778 293.07 124.769 293.073 124.76L293.079 124.738C293.65 122.854 291.44 121.095 289.651 122.01C288.287 122.709 288.528 124.495 288.531 124.513C288.563 124.737 288.8 125.883 290.285 126.406L290.286 126.406L290.287 126.406L290.288 126.406L290.289 126.407L290.289 126.407L290.29 126.407L290.291 126.407L290.292 126.408ZM295.604 89.8672C297.062 90.3574 298.191 89.6175 298.332 88.6184C298.549 87.0786 296.618 85.8044 295.105 86.4886C293.705 87.1221 293.73 89.0786 295.604 89.8672ZM294.08 58.9897C295.364 59.3905 296.397 58.8069 296.556 58.0102C296.814 56.7174 294.901 55.6319 293.547 56.3015C292.395 56.8717 292.478 58.3854 294.08 58.9897ZM288.049 34.7909C289.352 35.1861 290.232 34.6159 290.416 34.1058C290.786 33.0806 289.023 32.2403 287.759 32.8396C286.939 33.2288 286.693 34.2419 288.049 34.7909ZM280.522 17.8976C281.587 18.1705 282.472 17.7945 282.734 17.4543C282.783 17.3902 282.827 17.2998 282.84 17.2347C282.98 16.5156 281.281 16.1631 280.28 16.7027C279.74 16.9936 279.525 17.5705 280.522 17.8976ZM273.411 7.68405C274.148 7.83209 275.119 7.68982 275.565 7.46411C275.766 7.36191 275.817 7.27164 275.824 7.21384C275.879 6.75354 273.747 6.74634 273.107 7.20526C273.037 7.2554 272.723 7.51453 273.411 7.68405ZM267.365 2.67273C267.941 2.75131 268.95 2.7131 269.554 2.63193C270.03 2.56805 270.055 2.50897 270.063 2.48941L270.063 2.48914C270.057 2.47656 270.044 2.46463 270.033 2.45688H270.032L270.032 2.45694H270.031C269.681 2.30096 267.189 2.33783 267.112 2.58075C267.128 2.61288 267.157 2.63968 267.365 2.67273ZM261.498 0.99118C261.83 1.01117 262.52 1.03137 263.803 1.05713C264.584 1.07297 264.596 1.0704 264.625 1.06516C264.311 1.03354 261.472 0.920013 261.362 0.978882C261.407 0.985107 261.453 0.988373 261.498 0.99118ZM79.4288 307.011C79.6228 308.411 79.1574 310.299 77.7791 310.203C75.7629 309.752 75.3749 305.735 76.8062 304.648C77.8353 303.867 79.1585 305.059 79.4288 307.011ZM53.9457 308.97C54.2409 310.661 53.7256 312.233 52.843 312.333C51.2483 312.455 50.2593 308.458 51.5032 306.921C52.3362 305.89 53.5919 306.944 53.9457 308.97ZM107.85 298.054C107.987 299.679 107.179 301.293 105.757 301.104C103.645 300.578 103.336 296.766 104.861 295.615C104.962 295.538 105.114 295.461 105.228 295.406L105.228 295.401C106.559 294.914 107.71 296.399 107.85 298.054ZM32.0115 304.099C32.2725 305.625 32.0081 307.4 31.1989 307.61C29.8937 307.823 29.0122 303.702 30.0344 302.166C30.6839 301.191 31.6815 302.166 32.0115 304.099ZM138.671 281.953C138.709 283.428 137.8 285.256 135.993 284.852C133.658 283.912 133.764 280.189 135.66 279.26C137.072 278.569 138.62 279.953 138.671 281.953ZM15.4036 292.093C15.5874 293.613 15.3982 295.436 14.8238 295.727C13.7257 296.031 13.3823 291.306 14.0911 290.134C14.4745 289.498 14.9825 290.004 15.272 291.31C15.3198 291.526 15.3741 291.847 15.4036 292.093ZM170.914 258.894C170.876 260.379 169.794 262.18 167.859 261.699C165.471 260.785 165.644 257.127 167.606 256.138C169.205 255.332 170.968 256.8 170.914 258.894ZM5.41695 272.752C5.46293 274.266 5.28666 276.13 4.92055 276.5C4.28563 276.819 4.22378 272.437 4.68759 270.98C4.75244 270.776 4.9243 270.343 5.11881 270.727C5.27628 271.038 5.38797 271.795 5.41695 272.752ZM202.743 229.559C202.607 230.515 202.13 231.061 201.9 231.325L201.899 231.326L201.9 231.322L201.899 231.322C201.531 231.659 200.768 232.358 199.45 232.006C196.914 231.084 197.176 227.427 199.296 226.444C201.164 225.579 203.065 227.296 202.743 229.559ZM3.00791 245.889C2.88141 247.3 2.60824 249.514 2.42529 250L2.42203 250.004L2.41457 250.014L2.40363 250.028C2.18311 249.572 2.90856 244.222 3.06562 244.013C3.09337 244.072 3.15876 244.211 3.00791 245.889ZM231.663 194.091C231.416 195.633 229.99 196.96 228.26 196.48C225.792 195.64 225.896 192.236 227.876 191.104C229.806 190.001 232.036 191.761 231.663 194.091ZM254.573 155.823C254.321 157.4 252.801 158.37 251.257 157.942C249.092 157.279 248.649 154.434 250.516 153.185C252.439 151.899 254.941 153.526 254.573 155.823ZM269.269 118.492C268.962 119.534 267.866 120.486 266.185 120.118L266.184 120.118L266.183 120.118L266.182 120.118L266.182 120.117L266.181 120.117L266.18 120.117L266.179 120.117L266.179 120.116C263.574 119.284 264.033 116.457 265.447 115.545C267.264 114.374 269.751 115.85 269.418 117.903L269.416 117.919C269.408 117.967 269.395 118.015 269.269 118.492ZM275.815 83.5361C275.635 84.4968 274.445 85.542 272.679 85.0062C270.68 84.232 270.755 82.1298 272.313 81.3949C274.033 80.5827 276.128 81.8635 275.815 83.5361ZM275.346 54.4119C275.12 55.2964 273.869 56.0052 272.436 55.6074C270.722 55.0213 270.746 53.4358 272.056 52.7614C273.288 52.1268 275.119 52.5779 275.376 53.9251L275.373 53.9243L275.373 53.9286C275.383 54.0593 275.395 54.2216 275.346 54.4119ZM270.486 31.9908C270.222 32.5957 269.056 33.2626 267.64 32.8855C266.218 32.3654 266.59 31.293 267.535 30.8241C268.967 30.1133 270.842 30.7694 270.529 31.8723C270.524 31.8901 270.517 31.9104 270.51 31.9305C270.506 31.941 270.502 31.9514 270.498 31.9615L270.493 31.9739L270.486 31.9908ZM263.678 16.6971C263.281 17.0713 262.159 17.5106 261.014 17.2639C260.079 16.9973 260.205 16.4538 260.797 16.0765C261.964 15.3346 264.139 15.5387 263.901 16.3678C263.869 16.4772 263.794 16.5879 263.678 16.6971ZM256.594 7.54974C255.979 7.83673 254.789 8.06445 253.94 7.93188C253.245 7.79434 253.555 7.5184 253.666 7.43692C254.303 6.97171 256.448 6.66104 256.966 7.06134C256.965 7.06119 256.964 7.06094 256.964 7.06125C257.012 7.1171 257.159 7.28751 256.594 7.54974ZM249.193 3.14453C248.402 3.31381 247.111 3.45776 246.452 3.40253C246.227 3.37952 246.138 3.33658 246.189 3.27579C246.46 2.94913 249.948 2.59445 249.885 2.89963C249.872 2.96283 249.613 3.05472 249.193 3.14453ZM240.133 1.89774C239.118 2.00909 237.759 2.1264 237.243 2.12909C237.162 2.12918 237.12 2.12759 237.096 2.12375C237.073 2.11996 237.068 2.11401 237.059 2.10526C237.366 1.96185 240.657 1.69833 241.107 1.74622C241.093 1.76883 241.076 1.79391 240.133 1.89774ZM57.1099 283.545C58.208 283.453 58.9647 281.672 58.7291 279.735C58.4512 277.447 56.9462 276.385 55.9041 277.744C54.4942 279.581 55.3392 283.648 57.1099 283.545ZM83.1325 279.456C84.6092 279.577 85.4407 277.801 85.3641 276.085C85.2792 274.184 84.1754 272.824 82.9543 273.117L82.9541 273.115L82.9543 273.113C82.7906 273.168 82.5873 273.237 82.3648 273.411C80.6654 274.741 80.8579 278.951 83.1325 279.456ZM34.7772 279.883C35.7811 279.678 36.2932 277.663 36.1253 275.982C36.0522 275.247 35.8006 273.948 34.9432 273.514L34.9432 273.515C34.9434 273.516 34.9434 273.517 34.9432 273.518C34.5401 273.377 34.1701 273.542 33.843 274.009C32.5555 275.852 33.2276 280.079 34.7772 279.883ZM113.385 267.336C114.882 266.483 114.976 264.713 114.969 264.191C114.937 261.875 113.223 260.428 111.693 261.426C109.768 262.682 109.811 266.891 112.296 267.49C112.617 267.534 112.901 267.551 113.386 267.331L113.385 267.334L113.385 267.336ZM18.1186 268.298C18.8887 267.996 19.2958 266.007 19.2318 264.338C19.2125 263.829 19.1535 263.444 19.1076 263.21C18.8309 261.804 18.2191 261.422 17.6845 262.321C16.7144 263.953 16.8214 268.563 18.1186 268.298ZM143.138 247.715C145.181 248.158 146.349 246.096 146.375 244.501C146.412 242.198 144.528 240.705 142.839 241.698C140.771 242.914 140.604 246.776 143.138 247.715ZM8.85973 248.654C9.45129 248.23 9.84643 245.886 9.9045 244.358C9.94823 243.195 9.81836 242.66 9.76066 242.483C9.60782 242.018 9.37289 242.049 9.11619 242.569C8.35195 244.116 7.98494 248.934 8.85973 248.654ZM174.26 220.724C176.292 221.204 177.619 219.359 177.794 217.843C178.088 215.306 175.932 213.6 173.949 214.8C171.842 216.076 171.675 219.831 174.26 220.724ZM7.88354 221.277C8.23443 220.792 8.78579 218.43 9.0482 216.985C9.18892 216.209 9.40079 214.887 9.23506 214.758C8.75014 215.03 7.47407 221.022 7.8416 221.301C7.85396 221.294 7.87117 221.285 7.88354 221.277ZM203.093 187.388C205.016 187.863 206.588 186.27 206.797 184.544C207.093 182.092 204.862 180.439 202.819 181.595C200.649 182.823 200.449 186.551 203.093 187.388ZM229.886 149.305C229.988 149.092 230.115 148.828 230.185 148.49C230.701 145.997 228.068 144.285 225.917 145.715C223.82 147.108 224.203 150.157 226.557 150.811C226.912 150.899 228.741 151.236 229.89 149.305C229.889 149.305 229.888 149.305 229.886 149.305ZM242.3 114.624C244.11 114.961 245.343 113.906 245.724 112.785L245.724 112.784L245.724 112.783C245.78 112.602 245.814 112.492 245.836 112.42C245.861 112.337 245.869 112.305 245.876 112.272C245.879 112.261 245.881 112.249 245.884 112.236C246.333 110.029 243.693 108.531 241.667 109.844C239.948 110.958 239.6 113.848 242.294 114.623L242.294 114.623L242.295 114.623L242.296 114.623L242.297 114.624L242.297 114.624L242.298 114.624L242.299 114.624C242.299 114.624 242.3 114.624 242.3 114.624ZM249.741 81.141C251.497 81.6152 253.023 80.6093 253.294 79.4099C253.701 77.608 251.456 76.3538 249.54 77.3129C247.806 78.1818 247.611 80.3864 249.741 81.141ZM250.458 53.3472C251.99 53.7188 253.369 52.9632 253.767 52.0492C253.809 51.9525 253.851 51.815 253.869 51.7091C254.129 50.1436 251.743 49.3682 250.058 50.4711C248.793 51.2995 248.727 52.8199 250.458 53.3472ZM246.405 32.2405C247.9 32.5799 249.277 31.8484 249.696 31.1895C249.782 31.0538 249.839 30.892 249.855 30.7997C250.062 29.6078 247.836 29.2169 246.299 30.1751C245.42 30.7226 244.953 31.7729 246.405 32.2405ZM239.925 18.0724C241.042 18.2639 242.425 17.8259 243.064 17.3101C243.364 17.0694 243.44 16.8741 243.451 16.7524C243.531 15.9059 241.106 15.9671 239.796 16.8446C239.138 17.2857 238.972 17.849 239.925 18.0724ZM231.842 9.95963C232.762 10.0555 234.233 9.70389 235.028 9.31647C235.396 9.13724 235.78 8.88058 235.517 8.67664L235.52 8.67593C234.874 8.32791 232.274 8.84668 231.544 9.46854C231.408 9.58459 231.164 9.86566 231.842 9.95963ZM189.508 11.0332C189.958 10.9262 191.073 10.6236 193.006 10.0988C194.38 9.72607 194.386 9.72366 194.451 9.69962C193.995 9.79828 189.668 10.9236 189.431 11.0493C189.455 11.0446 189.485 11.0382 189.508 11.0332ZM221.657 6.59317C222.426 6.60751 224.027 6.2825 224.983 5.98102C225.486 5.8226 225.793 5.67773 225.804 5.59338C225.861 5.18475 221.661 6.00305 221.354 6.46036C221.301 6.54062 221.402 6.58514 221.657 6.59317ZM207.911 6.97772C208.721 6.91821 210.63 6.4765 211.297 6.31122C212.045 6.12616 212.468 5.99902 212.555 5.93253C212.389 5.75626 207.925 6.7215 207.778 6.96521C207.784 6.96768 207.79 6.9697 207.795 6.97134C207.804 6.97424 207.814 6.97601 207.827 6.97699C207.845 6.97839 207.87 6.97824 207.911 6.97772ZM65.9073 250.178C65.9374 251.678 65.2709 253.893 63.6955 254.121L63.695 254.121L63.6945 254.122L63.6941 254.122L63.6936 254.121L63.6931 254.122L63.6922 254.121L63.6921 254.122L63.6917 254.122L63.6912 254.122C63.6912 254.122 63.6908 254.122 63.6907 254.122C61.4534 254.069 61.1626 249.67 62.7766 247.835C64.1291 246.297 65.8554 247.589 65.9073 250.178ZM93.2066 244.06C93.1348 245.896 92.0331 247.784 90.3779 247.633C87.7883 247.074 87.922 242.427 90.0122 241.039C91.6336 239.963 93.3053 241.544 93.2066 244.06ZM42.8797 247.593C42.9553 249.697 42.053 251.697 40.9487 251.873C39.2346 252.037 38.7614 247.731 40.2643 245.647C41.279 244.24 42.5223 244.876 42.8232 246.955C42.8509 247.145 42.8726 247.401 42.8797 247.593ZM123.186 228.799C123.116 230.545 121.887 232.756 119.76 232.366C117.054 231.371 117.474 226.956 119.804 225.759C121.542 224.868 123.28 226.43 123.186 228.799ZM25.9667 236.583C25.8873 238.396 25.204 240.535 24.2391 240.829C22.7888 241.036 22.9109 236.522 24.0999 234.583C24.8187 233.41 25.5997 233.632 25.878 235.086C25.9567 235.495 25.9895 236.055 25.9667 236.583ZM153.843 205.649C153.653 207.308 152.242 209.373 150.087 208.933C147.351 208.026 147.701 203.821 150.019 202.49C152.027 201.337 154.136 203.079 153.843 205.649ZM17.4708 216.514C17.2633 218.138 16.5639 220.601 15.7901 221.001C14.7304 221.204 15.4449 216.382 16.5218 214.568C16.9372 213.869 17.2975 213.808 17.4626 214.411C17.5193 214.618 17.6341 215.237 17.4708 216.514ZM182.648 175.482C182.479 176.395 182.071 176.935 181.801 177.291L181.8 177.291L181.798 177.291L181.798 177.291C181.373 177.746 180.378 178.81 178.71 178.451C175.911 177.625 176.261 173.576 178.629 172.259C180.842 171.028 183.133 172.865 182.648 175.482ZM18.414 188.525C17.9864 190.154 17.1026 192.659 16.5563 193.122C16.5463 193.125 16.5345 193.127 16.5228 193.13C16.5108 193.133 16.4987 193.135 16.4884 193.138C15.9875 192.722 17.9905 186.446 18.6758 186.286C18.9095 186.476 18.6123 187.77 18.414 188.525ZM206.427 141.484C206.122 143.368 204.266 144.679 202.454 144.291C199.989 143.673 199.699 140.377 201.977 138.866C204.17 137.412 206.831 138.977 206.427 141.484ZM28.5084 156.122C27.9081 157.474 26.8911 159.64 26.5098 160.222C26.5011 160.232 26.4902 160.246 26.4813 160.258C26.3733 159.864 29.1011 154.283 29.3362 153.988C29.3525 154.046 29.3828 154.154 28.5084 156.122ZM222.562 107.944C222.207 108.961 220.913 110.359 218.806 110.037L218.805 110.037L218.804 110.037L218.803 110.036C218.803 110.036 218.803 110.036 218.803 110.036L218.803 110.037L218.802 110.037L218.802 110.036L218.801 110.036L218.8 110.036L218.799 110.036C215.984 109.312 216.466 106.272 218.326 105.048C220.553 103.584 223.31 105.079 222.729 107.437C222.726 107.449 222.724 107.459 222.721 107.469C222.713 107.502 222.703 107.534 222.67 107.63C222.647 107.697 222.614 107.794 222.562 107.944ZM230.809 76.5829C230.351 77.786 228.732 78.8197 226.917 78.3917C224.785 77.7104 224.969 75.5877 226.663 74.5003C228.769 73.1484 231.412 74.3091 230.882 76.3546C230.865 76.4245 230.835 76.5158 230.809 76.5829ZM231.947 50.8037C231.516 51.7571 229.914 52.8408 228.027 52.3969C226.115 51.6972 226.846 49.9594 228.336 49.1951C230.325 48.1754 232.527 49.0281 232.018 50.6203C232 50.6769 231.971 50.7502 231.947 50.8037ZM227.975 31.9242C227.416 32.6462 225.805 33.494 224.237 33.2058C222.78 32.8083 223.301 31.7124 224.238 31.0742C225.958 29.9027 228.47 30.0789 228.25 31.3549C228.218 31.5379 228.126 31.7297 227.975 31.9242ZM220.64 19.8183C219.839 20.4436 218.224 21.0277 217.009 20.8803C216.025 20.7084 216.257 20.1147 216.888 19.6366C218.393 18.498 221.382 18.1724 221.153 19.1726C221.122 19.3085 221.008 19.5306 220.64 19.8183ZM154.424 25.0435C153.59 25.4475 151.271 26.5508 150.563 26.8055C150.547 26.8097 150.524 26.816 150.507 26.8202C150.638 26.6109 155.364 24.4367 155.858 24.2983C155.832 24.331 155.795 24.3799 154.424 25.0435ZM210.514 13.6029C209.57 14.1359 207.797 14.6992 206.761 14.6562C206.029 14.6081 206.306 14.2719 206.458 14.1295C207.421 13.2314 211.184 12.3116 211.195 12.9712C211.198 13.1271 210.949 13.357 210.514 13.6029ZM177.829 16.1954C176.734 16.6495 174.839 17.3476 174.055 17.4797C173.964 17.4895 173.947 17.4897 173.903 17.481L173.89 17.4487C174.179 17.062 178.705 15.3852 179.211 15.477C179.215 15.4864 179.219 15.4979 179.222 15.5071C179.127 15.62 178.658 15.8519 177.829 16.1954ZM196.52 12.5453C195.54 12.9659 193.635 13.6013 192.66 13.6279C192.542 13.6207 192.294 13.605 192.502 13.4112C193.203 12.7558 197.455 11.4856 197.556 11.9001C197.584 12.0138 197.197 12.2548 196.52 12.5453ZM72.0639 224.136C73.7573 224.202 74.9705 222.078 75.1232 220.072C75.3271 217.399 73.722 215.864 72.0566 217.14C69.9449 218.757 69.5629 223.644 72.0639 224.136ZM49.539 223.726C50.761 223.577 51.933 221.603 52.0982 219.416C52.1226 219.096 52.1195 218.67 52.0909 218.379C51.8679 216.117 50.3562 215.55 49.0955 217.258C47.3426 219.631 47.6329 223.863 49.539 223.726ZM98.9824 214.806C100.84 214.983 102.214 212.953 102.421 210.97C102.715 208.152 100.71 206.483 98.785 207.942C96.5295 209.651 96.2723 214.249 98.9824 214.806ZM33.1778 213.537C34.3185 213.272 35.3454 211.005 35.5889 209.054C35.6629 208.461 35.6554 208.008 35.6356 207.733C35.5068 205.936 34.5423 205.519 33.5285 206.823C31.9512 208.853 31.4329 213.695 33.1778 213.537ZM127.615 196.052C129.909 196.446 131.34 194.125 131.584 192.433C131.988 189.624 129.863 187.852 127.729 189.218C125.341 190.747 124.869 195.158 127.615 196.052ZM25.7681 193.867C26.6758 193.528 27.7029 191.231 28.1345 189.296C28.3194 188.466 28.3928 187.701 28.3358 187.198C28.2333 186.285 27.7602 186.201 27.1313 186.985C25.6427 188.84 24.4097 193.982 25.7681 193.867ZM155.56 169.365C157.629 169.741 159.399 167.934 159.755 166.008C160.291 163.113 157.784 161.378 155.429 163.013C153.074 164.649 152.76 168.591 155.56 169.365ZM28.3393 166.644C29.0482 166.188 30.2399 163.816 30.8665 161.973C30.9997 161.581 31.0809 161.283 31.1399 161.066C31.1395 161.066 31.1389 161.067 31.1388 161.067L31.139 161.066C31.2065 160.789 31.364 160.142 31.2654 159.866C31.0148 159.164 29.5429 161.506 28.5961 164.114C28.0931 165.499 27.7983 166.882 28.3393 166.644ZM179.249 138.252C181.265 138.617 183.101 136.967 183.486 135.259C183.507 135.167 183.53 135.042 183.542 134.948C183.896 132.251 181.096 130.911 178.787 132.672C176.678 134.281 176.594 137.658 179.249 138.252ZM40.1863 135.503C40.7559 135.035 42.1311 132.844 43.0091 131.17C43.8999 129.472 43.7959 129.294 43.7615 129.235C43.3561 129.296 39.7247 134.895 40.0914 135.54C40.1217 135.536 40.1598 135.518 40.1863 135.503ZM195.898 106.382C197.915 106.618 199.389 105.379 199.954 104.047C200.142 103.568 200.169 103.475 200.209 103.255C200.639 100.892 197.892 99.6575 195.617 101.19C193.616 102.538 192.977 105.732 195.892 106.382L195.893 106.382L195.893 106.382L195.894 106.382C195.894 106.382 195.895 106.382 195.895 106.382L195.896 106.382L195.896 106.382L195.897 106.383H195.897L195.898 106.382ZM59.7397 103.884C60.1954 103.471 61.5224 101.868 62.698 100.31C63.5581 99.1694 63.9821 98.5328 63.9571 98.417C63.3998 98.7135 59.5472 103.644 59.6179 103.969L59.6195 103.969C59.6676 103.945 59.6724 103.943 59.7397 103.884ZM204.294 76.9306C206.197 77.3102 208.053 76.1161 208.593 74.763C208.649 74.6216 208.706 74.4226 208.732 74.2696C209.068 72.226 206.361 71.3963 204.206 72.8817C202.439 74.1012 202.158 76.326 204.294 76.9306ZM84.3071 75.2972C84.8736 74.8902 86.6041 73.272 87.8648 72.0157C89.1249 70.7603 89.1375 70.6559 89.142 70.6165C88.6651 70.7905 84.234 75.0392 84.2025 75.3528L84.2231 75.3455C84.2299 75.343 84.2356 75.3407 84.2411 75.3382C84.2566 75.331 84.2709 75.3214 84.3071 75.2972ZM205.412 53.1551C207.333 53.5264 209.148 52.3271 209.719 51.3188C209.82 51.1397 209.913 50.8952 209.943 50.7246C210.227 49.137 207.897 48.6222 205.857 49.8218C204.314 50.7287 203.448 52.5277 205.412 53.1551ZM111.032 52.2125C111.744 51.8778 113.766 50.426 114.951 49.507C116.114 48.6055 116.249 48.4131 116.294 48.3501L116.294 48.3496C116.291 48.3388 116.288 48.3234 116.285 48.3127C116.115 48.3412 115.571 48.6712 114.572 49.351C112.788 50.5834 111.15 51.8629 110.921 52.2028L110.924 52.2156C110.926 52.2244 110.929 52.2338 110.931 52.2416C110.942 52.2399 110.955 52.237 110.968 52.2336L110.98 52.23L110.992 52.2265C111.006 52.222 111.02 52.2171 111.032 52.2125ZM200.992 36.3135C202.654 36.538 204.49 35.5121 205.176 34.6855C205.489 34.3085 205.549 34.0139 205.561 33.9051C205.699 32.5625 202.849 32.7185 201.008 34.1532C199.938 34.9864 199.64 36.022 200.992 36.3135ZM137.081 35.8604C138.027 35.625 140.29 34.3209 141.292 33.6755C142.559 32.8586 142.557 32.702 142.556 32.6505C142.071 32.4583 136.926 35.3873 136.939 35.8484C136.979 35.8649 137.039 35.864 137.081 35.8604ZM192.011 26.5372C193.298 26.6164 195.23 25.7978 196.158 25.0138C196.534 24.6963 196.75 24.3831 196.752 24.1539C196.759 23.1169 193.276 23.9451 191.782 25.336C191.257 25.8251 191.001 26.4337 192.011 26.5372ZM160.162 26.3573C161.212 26.2379 163.31 25.2532 164.42 24.5879C165.135 24.16 165.547 23.817 165.522 23.67C165.428 23.1104 160.636 25.2105 159.949 26.1122C159.754 26.3686 160.029 26.3612 160.162 26.3573ZM178.573 23.3453C179.566 23.3128 181.502 22.5852 182.717 21.7875C183.291 21.4109 183.603 21.0737 183.553 20.8865C183.362 20.1758 179.091 21.718 178.176 22.8279C177.896 23.1684 178.041 23.3569 178.573 23.3453ZM85.9349 189.422C85.6052 191.532 84.0953 193.754 82.2314 193.662C79.5966 193.159 80.1683 188.378 82.5142 186.45C84.4175 184.886 86.2338 186.232 85.9841 189.022C85.9733 189.143 85.9538 189.302 85.9349 189.422ZM63.5775 190.842C63.2774 193.212 61.7658 195.406 60.3425 195.538C58.186 195.658 58.1592 191.263 60.3 188.722C61.8271 186.91 63.47 187.423 63.6177 189.758C63.6367 190.06 63.6204 190.505 63.5775 190.842ZM112.195 176.973C111.911 178.934 110.279 181.476 107.951 181.153C105.139 180.214 105.971 175.517 108.591 173.879C110.672 172.579 112.591 174.227 112.195 176.973ZM47.9916 181.991C47.5667 184.046 46.2538 186.409 44.875 186.645C42.9731 186.728 43.6624 182.159 45.4901 179.874C46.7776 178.265 47.9862 178.455 48.1304 180.288C48.1669 180.758 48.1155 181.395 47.9916 181.991ZM138.728 155.959C138.424 157.367 137.603 158.209 137.253 158.568L137.254 158.564C136.493 159.226 135.609 159.811 134.299 159.617C131.407 158.861 132.048 154.562 134.643 152.894C137.065 151.337 139.356 153.055 138.728 155.959ZM41.8156 163.327C41.306 165.102 39.9328 167.735 38.6798 168.064C37.1536 168.076 38.4875 163.542 40.313 161.415C40.5772 161.106 41.906 159.661 42.0936 161.482C42.0946 161.482 42.0951 161.482 42.0957 161.481L42.0957 161.484C42.0977 161.824 42.1008 162.336 41.8156 163.327ZM161.857 129.008C161.451 130.9 159.485 132.788 157.314 132.472C154.581 131.934 154.886 128.312 157.188 126.594C159.546 124.834 162.239 126.026 161.912 128.684C161.9 128.782 161.878 128.912 161.857 129.008ZM46.1876 137.999C45.4128 139.861 43.8836 142.219 42.9286 142.626C42.1017 142.831 42.6475 140.921 43.6763 139.008C44.9206 136.696 46.3969 135.154 46.6569 135.895C46.7747 136.232 46.6037 136.998 46.1876 137.999ZM178.112 101.051C177.455 102.469 175.861 103.827 173.783 103.667L173.783 103.667H173.782L173.781 103.667L173.78 103.666C173.78 103.666 173.78 103.666 173.78 103.667L173.779 103.666L173.778 103.666L173.778 103.666C173.777 103.666 173.777 103.666 173.777 103.666C170.97 103.143 171.532 100.07 173.461 98.5124C175.766 96.6512 178.745 97.5296 178.441 99.9811C178.388 100.413 178.254 100.722 178.113 101.048L178.112 101.051ZM59.9708 109.971C59.0828 111.422 57.3763 113.657 56.4813 114.077C55.9415 114.202 56.4495 113.158 56.8003 112.524C57.6031 111.075 59.3964 108.625 60.4939 107.929L60.4944 107.928C60.4946 107.928 60.495 107.928 60.495 107.928L60.4955 107.928L60.4961 107.927C60.6545 107.852 60.9839 107.697 60.7934 108.33C60.7403 108.505 60.5542 109.017 59.9708 109.971ZM186.635 74.3967C186.04 75.894 183.967 77.337 181.942 77.0136C179.659 76.4594 180.204 74.005 182.262 72.6455C184.557 71.1297 187.135 71.8282 186.784 73.872C186.756 74.0347 186.695 74.2454 186.635 74.3967ZM80.9262 82.7702C79.7757 84.197 77.9062 86.0683 77.0622 86.4712C76.827 86.5691 76.75 86.505 76.8269 86.2767C76.8704 86.1475 77.1792 85.4062 78.9936 83.4493L78.9949 83.4481L78.996 83.4471C80.5625 81.7983 81.8267 80.7989 81.9369 81.1227C81.9805 81.2501 81.7416 81.7584 80.9262 82.7702ZM187.079 53.8842C186.389 54.9906 184.382 56.3703 182.409 56.082C180.436 55.5619 181.375 53.7053 182.889 52.6548C185.041 51.1619 187.618 51.378 187.409 53.0334C187.375 53.3013 187.264 53.5876 187.079 53.8842ZM105.373 60.3218C104.099 61.5489 102.157 63.0585 101.241 63.3596L101.24 63.3597C101.108 63.3868 100.834 63.443 101.118 62.988C102.001 61.578 106.35 58.212 106.593 58.7507C106.67 58.9213 106.202 59.5233 105.373 60.3218ZM180.992 40.4264C180.049 41.467 178.065 42.5143 176.506 42.3922C175.117 42.1917 175.465 41.0683 176.605 40.0977C178.576 38.4185 181.733 37.9585 181.572 39.3742C181.548 39.5897 181.427 39.9469 180.992 40.4264ZM130.334 44.2036C129.369 45.0156 127.044 46.6194 125.789 46.8286C125.624 46.8247 125.239 46.8152 125.863 46.1148C127.217 44.5943 131.263 42.2657 131.413 42.9195C131.446 43.0653 131.184 43.4884 130.334 44.2036ZM169.379 34.2676C168.199 35.3576 166.092 36.3235 164.87 36.3334C164.034 36.3236 163.898 35.8525 164.525 35.1329C165.945 33.5035 169.888 32.0726 170.078 33.1191C170.127 33.3929 169.873 33.8118 169.379 34.2676ZM152.147 35.6544C150.918 36.6228 148.853 37.7185 147.659 37.8006C146.958 37.7766 147.235 37.3116 147.592 36.9258C149.038 35.3611 153.12 33.52 153.192 34.4002C153.202 34.5213 153.121 34.8864 152.147 35.6544ZM77.5761 167.468C79.6198 167.192 81.0738 164.631 81.4538 162.899C81.7294 161.643 81.7042 159.507 79.86 159.472L79.8594 159.473L79.8586 159.472L79.858 159.473L79.8576 159.473C79.8571 159.472 79.8571 159.472 79.8566 159.473L79.8562 159.473C79.8562 159.473 79.8557 159.473 79.8556 159.473L79.8548 159.473C79.5044 159.519 78.6827 159.63 77.659 160.751C75.4752 163.143 75.0633 167.421 77.5709 167.468L77.5714 167.468L77.5723 167.468L77.5728 167.468L77.5733 167.468L77.5741 167.468L77.5743 167.468L77.5747 167.468L77.5751 167.468L77.5758 167.468L77.5761 167.468ZM104.357 156.911C106.73 157.174 108.568 154.6 108.982 152.64C109.56 149.908 107.699 148.321 105.488 149.66C102.691 151.355 101.532 156.048 104.357 156.911ZM58.9304 160.831C60.4479 160.647 62.105 158.311 62.7009 156.244C62.8728 155.647 62.9672 155.007 62.9526 154.532C62.891 152.522 61.3005 152.453 59.6797 154.391C57.669 156.793 56.9146 160.847 58.9304 160.831ZM132.243 132.508C134.388 132.744 136.362 130.821 136.96 128.904C137.023 128.704 137.087 128.428 137.117 128.217C137.5 125.523 135.008 124.415 132.599 126.208C130.075 128.086 129.46 131.974 132.243 132.508ZM54.7398 139.252C56.2507 138.982 58.0064 136.36 58.6923 134.572C59.0166 133.726 59.0798 133.169 59.088 132.913C59.1292 131.661 58.2423 131.578 57.0248 132.72C54.832 134.777 53.073 139.095 54.7398 139.252ZM152.63 101.963C154.741 102.033 156.449 100.54 157.206 99.0293C157.343 98.7404 157.572 98.2577 157.615 97.6557C157.784 95.2889 154.914 94.7201 152.579 96.6573C150.537 98.3528 149.801 101.55 152.624 101.963C152.624 101.962 152.625 101.963 152.625 101.963L152.626 101.963L152.626 101.963L152.627 101.963L152.627 101.963L152.627 101.963L152.628 101.963C152.628 101.963 152.629 101.963 152.629 101.963L152.629 101.963L152.63 101.963ZM66.4781 109.472C67.755 109.136 69.6742 106.822 70.5687 105.281C71.0454 104.46 71.312 103.754 71.301 103.343C71.271 102.284 69.5817 103.343 67.8892 105.481C66.5312 107.198 65.3371 109.547 66.4781 109.472ZM160.22 74.1633C162.463 74.4767 164.633 72.7163 165.337 71.3251C165.46 71.082 165.573 70.7562 165.612 70.5321C165.95 68.5793 163.548 68.112 161.18 69.6699C159.206 70.9684 157.992 73.498 160.22 74.1633ZM89.6497 80.4412C90.7877 80.1546 92.8095 78.3952 93.9833 76.9312C94.6292 76.1262 95.0037 75.4387 94.9858 75.0931C94.9228 73.8986 91.235 76.6485 89.6533 79.0696C89.4191 79.4276 88.7269 80.5858 89.6497 80.4412ZM155.762 56.3618C157.473 56.4553 159.601 55.1367 160.592 53.8614C161.049 53.2726 161.165 52.8409 161.183 52.5829C161.294 50.944 158.205 51.4258 156.019 53.3885C154.6 54.6621 154.157 56.161 155.762 56.3618ZM116.705 59.7413C118.161 59.5946 120.461 57.8589 121.561 56.6625C122.148 56.024 122.472 55.4812 122.45 55.1721C122.388 54.2595 119.644 55.5602 117.638 57.4537C117.544 57.5417 115.37 59.6104 116.705 59.7413ZM140.563 51.3695C142.298 51.1818 144.355 49.7127 145.262 48.7298C145.808 48.138 146.08 47.6201 146.027 47.2708C145.84 46.012 142.032 47.6074 140.29 49.6746C140.049 49.96 138.932 51.3825 140.559 51.3697L140.559 51.3698C140.559 51.3693 140.56 51.3695 140.56 51.3695L140.56 51.3696C140.56 51.3696 140.56 51.3697 140.561 51.3693L140.561 51.3694L140.561 51.3695L140.562 51.3695L140.562 51.3692L140.563 51.3695ZM95.8722 135.449C95.1809 137.553 93.1948 139.797 91.1911 139.755C88.5948 139.351 89.7172 134.941 92.3528 132.846C93.0575 132.287 93.6002 132.117 93.9247 132.015L93.9261 132.011C95.7377 131.571 96.629 133.145 95.8722 135.449ZM79.3098 132.355C78.5498 134.402 76.6 136.683 74.9094 136.815C72.8374 136.766 73.5996 133.196 75.6795 130.813C77.5294 128.693 79.5025 128.47 79.6626 130.362C79.6955 130.749 79.6613 131.41 79.3098 132.355ZM119.177 121.401C118.562 123.175 116.49 125.545 114.198 125.381C111.519 124.877 112.438 120.944 115.079 118.924C117.383 117.162 119.652 117.911 119.414 120.355C119.386 120.65 119.288 121.081 119.177 121.401ZM78.1924 113.618C77.3156 115.603 75.2199 117.971 73.6133 118.195C71.9577 118.218 72.8259 115.363 74.7065 113.134C76.5628 110.934 78.5411 110.278 78.6267 111.835C78.641 112.1 78.6042 112.684 78.1924 113.618ZM137.422 98.0112C136.569 99.6095 134.763 101.239 132.649 101.276L132.649 101.276L132.648 101.276L132.648 101.276L132.647 101.276L132.646 101.276L132.646 101.276L132.645 101.276L132.645 101.276L132.644 101.276C129.966 101.009 130.712 97.964 132.618 96.1182C134.957 93.8534 137.979 93.9693 137.92 96.3214C137.903 96.9866 137.628 97.604 137.422 98.0112ZM92.5267 89.7115C92.1704 90.2563 91.8627 90.6156 91.5367 90.9959L91.5388 90.9926C89.6638 93.0507 88.4082 93.4496 87.9555 93.5257C86.6722 93.6633 87.0683 92.1282 88.1927 90.5656C90.1748 87.8102 93.2496 86.0783 93.3331 87.6697C93.358 88.1457 93.0642 88.8896 92.5267 89.7115ZM143.055 76.0681C142.236 77.5404 139.944 79.4908 137.771 79.3224C135.535 78.8442 136.833 76.1754 138.767 74.6778C140.429 73.3905 143.06 72.5695 143.47 74.4532L143.472 74.4504C143.488 74.7676 143.512 75.2466 143.055 76.0681ZM114.965 71.0789C113.942 72.5139 111.583 74.546 109.813 74.6288C108.183 74.3796 109.873 71.9534 111.707 70.4581C113.736 68.8018 115.66 68.3227 115.666 69.4708C115.667 69.6569 115.601 70.186 114.965 71.0789ZM134.34 65.9842C133.193 67.6838 130.827 69.2137 129.277 69.2592C127.84 69.2657 127.806 67.96 129.201 66.3477C131.37 63.8429 134.943 62.7205 134.907 64.5547C134.902 64.8316 134.799 65.3042 134.34 65.9842ZM92.468 114.656C94.3737 114.579 96.5399 112.381 97.4536 110.388C97.7183 109.811 97.8937 109.186 97.923 108.715C98.0573 106.561 95.8258 106.57 93.582 108.732C91.203 111.024 90.208 114.538 92.468 114.656ZM114.01 101.699C116.076 101.538 118.01 99.7018 118.934 98.064C119.106 97.7446 119.564 96.895 119.551 96.0227C119.519 93.8507 116.699 94.0639 114.349 96.4163C112.355 98.412 111.406 101.572 114 101.699C114.001 101.699 114.001 101.699 114.002 101.699C114.002 101.699 114.002 101.699 114.003 101.699C114.003 101.699 114.004 101.699 114.004 101.699C114.005 101.699 114.005 101.699 114.005 101.699L114.007 101.699C114.007 101.699 114.007 101.699 114.007 101.699C114.007 101.699 114.008 101.699 114.008 101.699C114.008 101.699 114.008 101.699 114.009 101.699L114.009 101.699C114.009 101.699 114.01 101.699 114.01 101.699ZM105.121 91.4825C107.218 91.481 109.62 89.1399 110.547 87.4504C110.876 86.8506 110.99 86.4163 111.028 86.2108C111.379 84.3287 109.474 84.205 107.183 85.9604C104.865 87.7357 102.943 91.0512 105.121 91.4825Z" fill="white"/>
</svg>
