<svg width="610" height="900" viewBox="0 0 610 900" fill="none" xmlns="http://www.w3.org/2000/svg">
<mask id="mask0_81_779" style="mask-type:alpha" maskUnits="userSpaceOnUse" x="-185" y="128" width="708" height="577">
<path d="M80.4506 650.053L65.6839 674.752C41.6464 714.959 -16.6006 714.959 -40.6381 674.752L-176.026 448.296C-187.728 428.724 -187.728 404.304 -176.026 384.731L-40.6381 158.275C-16.6006 118.069 41.6464 118.069 65.6839 158.275L80.4506 182.974C105.885 146.918 160.917 148.285 184.107 187.074L200.154 213.915C224.888 175.681 281.616 176.335 305.256 215.877L322.641 244.955L323.362 243.748C347.4 203.542 405.646 203.542 429.684 243.748L513.971 384.731C525.673 404.304 525.673 428.723 513.971 448.296L429.684 589.279C405.647 629.485 347.4 629.485 323.362 589.279L322.641 588.072L305.256 617.151C281.616 656.692 224.889 657.346 200.154 619.112L184.107 645.953C160.917 684.743 105.885 686.109 80.4506 650.053Z" fill="url(#paint0_linear_81_779)"/>
</mask>
<g mask="url(#mask0_81_779)">
<g style="mix-blend-mode:lighten">
<g filter="url(#filter0_i_81_779)">
<path d="M302.277 384.731C313.979 404.304 313.979 428.724 302.277 448.296L184.107 645.953C160.07 686.159 101.823 686.159 77.7854 645.953L-40.3847 448.296C-52.0864 428.724 -52.0864 404.304 -40.3848 384.731L77.7853 187.075C101.823 146.868 160.07 146.868 184.107 187.075L302.277 384.731Z" fill="url(#paint1_radial_81_779)" fill-opacity="0.7"/>
<path d="M302.277 384.731C313.979 404.304 313.979 428.724 302.277 448.296L184.107 645.953C160.07 686.159 101.823 686.159 77.7854 645.953L-40.3847 448.296C-52.0864 428.724 -52.0864 404.304 -40.3848 384.731L77.7853 187.075C101.823 146.868 160.07 146.868 184.107 187.075L302.277 384.731Z" fill="#1F2E7E" fill-opacity="0.2"/>
</g>
<path d="M301.419 385.244C312.932 404.501 312.932 428.526 301.419 447.783L183.249 645.44C159.6 684.997 102.293 684.997 78.6437 645.44L-39.5264 447.783C-51.0392 428.526 -51.0392 404.501 -39.5264 385.244L78.6436 187.588C102.293 148.031 159.6 148.031 183.249 187.588L301.419 385.244Z" stroke="white" stroke-width="2"/>
</g>
<g style="mix-blend-mode:lighten">
<g filter="url(#filter1_i_81_779)">
<path d="M406.207 384.731C417.908 404.304 417.908 428.723 406.207 448.296L305.256 617.151C281.218 657.357 222.972 657.357 198.934 617.151L97.9834 448.296C86.2817 428.723 86.2817 404.304 97.9834 384.731L198.934 215.877C222.972 175.67 281.218 175.67 305.256 215.877L406.207 384.731Z" fill="url(#paint2_radial_81_779)" fill-opacity="0.7"/>
<path d="M406.207 384.731C417.908 404.304 417.908 428.723 406.207 448.296L305.256 617.151C281.218 657.357 222.972 657.357 198.934 617.151L97.9834 448.296C86.2817 428.723 86.2817 404.304 97.9834 384.731L198.934 215.877C222.972 175.67 281.218 175.67 305.256 215.877L406.207 384.731Z" fill="#1F2E7E" fill-opacity="0.2"/>
</g>
<path d="M405.348 385.244C416.861 404.501 416.861 428.526 405.348 447.783L304.398 616.638C280.748 656.195 223.442 656.195 199.792 616.638L98.8417 447.783C87.329 428.526 87.329 404.501 98.8417 385.244L199.792 216.39C223.442 176.833 280.748 176.833 304.398 216.39L405.348 385.244Z" stroke="white" stroke-width="2"/>
</g>
<g style="mix-blend-mode:lighten">
<g filter="url(#filter2_i_81_779)">
<path d="M513.971 384.731C525.673 404.304 525.673 428.724 513.971 448.296L429.684 589.279C405.646 629.485 347.399 629.485 323.362 589.279L239.075 448.296C227.373 428.724 227.373 404.304 239.075 384.731L323.362 243.748C347.399 203.542 405.646 203.542 429.684 243.748L513.971 384.731Z" fill="url(#paint3_radial_81_779)" fill-opacity="0.7"/>
<path d="M513.971 384.731C525.673 404.304 525.673 428.724 513.971 448.296L429.684 589.279C405.646 629.485 347.399 629.485 323.362 589.279L239.075 448.296C227.373 428.724 227.373 404.304 239.075 384.731L323.362 243.748C347.399 203.542 405.646 203.542 429.684 243.748L513.971 384.731Z" fill="#1F2E7E" fill-opacity="0.2"/>
</g>
<path d="M513.113 385.244C524.626 404.501 524.626 428.526 513.113 447.783L428.826 588.766C405.176 628.323 347.87 628.323 324.22 588.766L239.933 447.783C228.42 428.526 228.42 404.501 239.933 385.244L324.22 244.262C347.87 204.704 405.176 204.704 428.826 244.261L513.113 385.244Z" stroke="white" stroke-width="2"/>
</g>
<g style="mix-blend-mode:lighten">
<g filter="url(#filter3_i_81_779)">
<path d="M201.072 384.731C212.773 404.304 212.773 428.724 201.072 448.296L65.6838 674.752C41.6463 714.959 -16.6007 714.959 -40.6382 674.753L-176.026 448.296C-187.728 428.724 -187.728 404.304 -176.026 384.731L-40.6383 158.275C-16.6008 118.069 41.6462 118.069 65.6837 158.275L201.072 384.731Z" fill="url(#paint4_radial_81_779)" fill-opacity="0.7"/>
<path d="M201.072 384.731C212.773 404.304 212.773 428.724 201.072 448.296L65.6838 674.752C41.6463 714.959 -16.6007 714.959 -40.6382 674.753L-176.026 448.296C-187.728 428.724 -187.728 404.304 -176.026 384.731L-40.6383 158.275C-16.6008 118.069 41.6462 118.069 65.6837 158.275L201.072 384.731Z" fill="#1F2E7E" fill-opacity="0.2"/>
</g>
<path d="M200.213 385.244C211.726 404.501 211.726 428.526 200.213 447.783L64.8255 674.239C41.1761 713.796 -16.1305 713.796 -39.7799 674.239L-175.168 447.783C-186.681 428.527 -186.681 404.501 -175.168 385.244L-39.78 158.788C-16.1306 119.231 41.176 119.231 64.8254 158.788L200.213 385.244Z" stroke="white" stroke-width="2"/>
</g>
</g>
<defs>
<filter id="filter0_i_81_779" x="-63.3691" y="156.92" width="374.423" height="544.052" filterUnits="userSpaceOnUse" color-interpolation-filters="sRGB">
<feFlood flood-opacity="0" result="BackgroundImageFix"/>
<feBlend mode="normal" in="SourceGraphic" in2="BackgroundImageFix" result="shape"/>
<feColorMatrix in="SourceAlpha" type="matrix" values="0 0 0 0 0 0 0 0 0 0 0 0 0 0 0 0 0 0 127 0" result="hardAlpha"/>
<feOffset dx="-14.2081" dy="24.8641"/>
<feGaussianBlur stdDeviation="30.1922"/>
<feComposite in2="hardAlpha" operator="arithmetic" k2="-1" k3="1"/>
<feColorMatrix type="matrix" values="0 0 0 0 1 0 0 0 0 1 0 0 0 0 1 0 0 0 0.87 0"/>
<feBlend mode="lighten" in2="shape" result="effect1_innerShadow_81_779"/>
</filter>
<filter id="filter1_i_81_779" x="74.9991" y="185.722" width="339.984" height="486.448" filterUnits="userSpaceOnUse" color-interpolation-filters="sRGB">
<feFlood flood-opacity="0" result="BackgroundImageFix"/>
<feBlend mode="normal" in="SourceGraphic" in2="BackgroundImageFix" result="shape"/>
<feColorMatrix in="SourceAlpha" type="matrix" values="0 0 0 0 0 0 0 0 0 0 0 0 0 0 0 0 0 0 127 0" result="hardAlpha"/>
<feOffset dx="-14.2081" dy="24.8641"/>
<feGaussianBlur stdDeviation="30.1922"/>
<feComposite in2="hardAlpha" operator="arithmetic" k2="-1" k3="1"/>
<feColorMatrix type="matrix" values="0 0 0 0 1 0 0 0 0 1 0 0 0 0 1 0 0 0 0.87 0"/>
<feBlend mode="lighten" in2="shape" result="effect1_innerShadow_81_779"/>
</filter>
<filter id="filter2_i_81_779" x="216.09" y="213.594" width="306.657" height="430.704" filterUnits="userSpaceOnUse" color-interpolation-filters="sRGB">
<feFlood flood-opacity="0" result="BackgroundImageFix"/>
<feBlend mode="normal" in="SourceGraphic" in2="BackgroundImageFix" result="shape"/>
<feColorMatrix in="SourceAlpha" type="matrix" values="0 0 0 0 0 0 0 0 0 0 0 0 0 0 0 0 0 0 127 0" result="hardAlpha"/>
<feOffset dx="-14.2081" dy="24.8641"/>
<feGaussianBlur stdDeviation="30.1922"/>
<feComposite in2="hardAlpha" operator="arithmetic" k2="-1" k3="1"/>
<feColorMatrix type="matrix" values="0 0 0 0 1 0 0 0 0 1 0 0 0 0 1 0 0 0 0.87 0"/>
<feBlend mode="lighten" in2="shape" result="effect1_innerShadow_81_779"/>
</filter>
<filter id="filter3_i_81_779" x="-199.011" y="128.12" width="408.859" height="601.651" filterUnits="userSpaceOnUse" color-interpolation-filters="sRGB">
<feFlood flood-opacity="0" result="BackgroundImageFix"/>
<feBlend mode="normal" in="SourceGraphic" in2="BackgroundImageFix" result="shape"/>
<feColorMatrix in="SourceAlpha" type="matrix" values="0 0 0 0 0 0 0 0 0 0 0 0 0 0 0 0 0 0 127 0" result="hardAlpha"/>
<feOffset dx="-14.2081" dy="24.8641"/>
<feGaussianBlur stdDeviation="30.1922"/>
<feComposite in2="hardAlpha" operator="arithmetic" k2="-1" k3="1"/>
<feColorMatrix type="matrix" values="0 0 0 0 1 0 0 0 0 1 0 0 0 0 1 0 0 0 0.87 0"/>
<feBlend mode="lighten" in2="shape" result="effect1_innerShadow_81_779"/>
</filter>
<linearGradient id="paint0_linear_81_779" x1="-275.66" y1="484.061" x2="766.971" y2="372.438" gradientUnits="userSpaceOnUse">
<stop offset="0.132716" stop-opacity="0"/>
<stop offset="1"/>
</linearGradient>
<radialGradient id="paint1_radial_81_779" cx="0" cy="0" r="1" gradientUnits="userSpaceOnUse" gradientTransform="translate(-131.465 507.937) scale(293.935 1273.26)">
<stop stop-color="#949494"/>
<stop offset="0.635171" stop-color="#181818"/>
<stop offset="1" stop-color="#1D1D1D"/>
</radialGradient>
<radialGradient id="paint2_radial_81_779" cx="0" cy="0" r="1" gradientUnits="userSpaceOnUse" gradientTransform="translate(13.4238 499.665) scale(267.343 1158.07)">
<stop stop-color="#949494"/>
<stop offset="0.635171" stop-color="#181818"/>
<stop offset="1" stop-color="#1D1D1D"/>
</radialGradient>
<radialGradient id="paint3_radial_81_779" cx="0" cy="0" r="1" gradientUnits="userSpaceOnUse" gradientTransform="translate(160.825 491.662) scale(241.609 1046.59)">
<stop stop-color="#949494"/>
<stop offset="0.635171" stop-color="#181818"/>
<stop offset="1" stop-color="#1D1D1D"/>
</radialGradient>
<radialGradient id="paint4_radial_81_779" cx="0" cy="0" r="1" gradientUnits="userSpaceOnUse" gradientTransform="translate(-273.627 516.207) scale(320.525 1388.44)">
<stop stop-color="#949494"/>
<stop offset="0.635171" stop-color="#181818"/>
<stop offset="1" stop-color="#1D1D1D"/>
</radialGradient>
</defs>
</svg>
