<svg width="530" height="443" viewBox="0 0 530 443" fill="none" xmlns="http://www.w3.org/2000/svg">
<path d="M485.939 192.088L465.546 232.344L438.877 269.166L406.953 300.881L370.968 326.233L332.275 344.349L292.291 354.736L252.429 357.283L214.056 352.274L178.403 340.263L146.578 322.16L119.49 299.072L118.53 297.903L106.371 282.925L97.7686 272.354L95.0365 267.369L85.5111 250.078L81.819 243.396L77.6841 231.163L71.7521 213.687L67.457 184.68L68.5399 157.752L74.4226 134.222L84.3297 115.208L97.2518 101.658L112.106 94.2736L126.948 93.5354L127.674 93.4984" stroke="url(#paint0_linear_81_793)" stroke-opacity="0.3" stroke-width="1.08501" stroke-linecap="round" stroke-linejoin="round"/>
<path d="M496.522 210.573L476.327 250.152L449.56 286.912L417.02 319.095L379.755 345.271L338.983 364.31L296.106 375.411L252.613 378.18L210.044 372.58L169.874 359.018L133.495 338.268L102.15 311.489L76.7733 280.143L58.0297 245.93L46.2153 210.659L41.2556 176.187L42.7324 144.313L49.9074 116.635L61.7341 94.5317L76.9701 79.0373L94.1873 70.8533L111.934 70.25L128.733 77.1789L143.181 91.1839" stroke="url(#paint1_linear_81_793)" stroke-opacity="0.3" stroke-width="1.08501" stroke-linecap="round" stroke-linejoin="round"/>
<path d="M507.291 229.378L487.28 268.28L460.415 304.967L427.26 337.629L388.678 364.643L345.801 384.617L299.995 396.444L252.823 399.422L205.971 393.232L161.198 378.082L120.192 354.65L84.5145 324.104L55.4459 288.057L33.8843 248.491L20.3344 207.583L14.7717 167.61L16.7163 130.751L25.2572 98.9504L39.0901 73.7953L56.6766 56.4302L76.3182 47.4954L96.2799 47.1388L111.934 70.2508L127.675 93.4986L133.988 96.0215L136.536 97.0428L142.664 99.4918" stroke="url(#paint2_linear_81_793)" stroke-opacity="0.3" stroke-width="1.08501" stroke-linecap="round" stroke-linejoin="round"/>
<path d="M518.244 248.515L498.442 286.716L471.478 323.328L437.695 356.495L397.772 384.358L352.741 405.28L303.945 417.845L253.019 421.02L201.823 414.239L152.374 397.477L106.666 371.313L66.5951 336.927L56.3558 324.19L33.7726 296.105L9.39297 251.1L-5.89233 204.481L-12.0088 158.946L-9.52278 117.078L0.458194 81.1667L16.3832 53.0088L36.3941 33.8223L58.4971 24.2106L80.711 24.149L101.189 33.0714L114.912 55.0393L128.732 77.1793L133.618 85.0065L142.663 99.4914L144.448 101.202L152.3 108.771L152.731 109.177L153.629 110.038L155.783 112.106" stroke="url(#paint3_linear_81_793)" stroke-opacity="0.3" stroke-width="1.08501" stroke-linecap="round" stroke-linejoin="round"/>
<path d="M120.204 199.928L101.781 231.113L85.511 250.078" stroke="url(#paint4_linear_81_793)" stroke-opacity="0.3" stroke-width="1.08501" stroke-linecap="round" stroke-linejoin="round"/>
<path d="M127.527 117.386L121.694 151.243L132.511 166.885L120.204 199.929L131.059 215.731L142.061 231.754L153.211 247.974" stroke="url(#paint5_linear_81_793)" stroke-opacity="0.3" stroke-width="1.08501" stroke-linecap="round" stroke-linejoin="round"/>
<path d="M-6.38428 32.1611L16.3834 53.0091L39.0894 73.7952L61.7339 94.5323L84.3294 115.208" stroke="url(#paint6_linear_81_793)" stroke-opacity="0.3" stroke-width="1.08501" stroke-linecap="round" stroke-linejoin="round"/>
<path d="M-24.4755 63.2719L0.458204 81.166L25.2564 98.9494L49.907 116.634L74.4221 134.221" stroke="url(#paint7_linear_81_793)" stroke-opacity="0.3" stroke-width="1.08501" stroke-linecap="round" stroke-linejoin="round"/>
<path d="M16.113 11.2145L36.3947 33.8223L56.6763 56.4299L76.9703 79.0377L97.2519 101.657" stroke="url(#paint8_linear_81_793)" stroke-opacity="0.3" stroke-width="1.08501" stroke-linecap="round" stroke-linejoin="round"/>
<path d="M-35.9817 103.281L-9.52199 117.077L16.7163 130.75L42.7328 144.312L68.5402 157.751" stroke="url(#paint9_linear_81_793)" stroke-opacity="0.3" stroke-width="1.08501" stroke-linecap="round" stroke-linejoin="round"/>
<path d="M10.562 302.05L-17.3991 311.169L-53.0889 315.649L-88.545 313.2L-122.463 304.031L-153.55 288.66L-180.674 267.947L-202.9 242.989L-219.527 215.114L-230.172 185.799L-234.713 156.571L-233.384 128.954L-226.702 104.402L-215.465 84.1694L-200.722 69.2906L-183.677 60.5033L-165.66 58.2267L-148.012 62.5585L-132.111 73.2533L-118.512 88.4644" stroke="url(#paint10_linear_81_793)" stroke-opacity="0.3" stroke-width="1.08501" stroke-linecap="round" stroke-linejoin="round"/>
<path d="M40.7389 1L58.4976 24.2105L76.3179 47.495L94.1874 70.8536L112.106 94.2733" stroke="url(#paint11_linear_81_793)" stroke-opacity="0.3" stroke-width="1.08501" stroke-linecap="round" stroke-linejoin="round"/>
<path d="M-39.0704 150.171L-12.0077 158.945L14.772 167.61L41.2563 176.187L67.4576 184.679" stroke="url(#paint12_linear_81_793)" stroke-opacity="0.3" stroke-width="1.08501" stroke-linecap="round" stroke-linejoin="round"/>
<path d="M65.2419 1.29572L80.7117 24.1493L96.2798 47.1387L114.912 55.0396L130.69 70.4601" stroke="url(#paint13_linear_81_793)" stroke-opacity="0.3" stroke-width="1.08501" stroke-linecap="round" stroke-linejoin="round"/>
<path d="M-32.4497 201.33L-5.89175 204.481L20.3342 207.582L46.2155 210.659L71.7522 213.686" stroke="url(#paint14_linear_81_793)" stroke-opacity="0.3" stroke-width="1.08501" stroke-linecap="round" stroke-linejoin="round"/>
<path d="M87.5914 11.2755L101.191 33.0708L118.334 49.9434" stroke="url(#paint15_linear_81_793)" stroke-opacity="0.3" stroke-width="1.08501" stroke-linecap="round" stroke-linejoin="round"/>
<path d="M81.8193 243.395L58.0301 245.93L33.8842 248.49L9.39375 251.099L-15.4663 253.745" stroke="url(#paint16_linear_81_793)" stroke-opacity="0.3" stroke-width="1.08501" stroke-linecap="round" stroke-linejoin="round"/>
<path d="M126.948 93.5347L127.527 117.385L138.357 133.618L149.334 150.072L160.448 166.723L171.708 183.596L165.825 215.065L153.211 247.973L133.557 280.623L118.53 297.902" stroke="url(#paint17_linear_81_793)" stroke-opacity="0.3" stroke-width="1.08501" stroke-linecap="round" stroke-linejoin="round"/>
<path d="M97.7687 272.354L76.7735 280.144L55.4456 288.057L33.7732 296.106L11.7563 304.278" stroke="url(#paint18_linear_81_793)" stroke-opacity="0.3" stroke-width="1.08501" stroke-linecap="round" stroke-linejoin="round"/>
<path d="M0.86442 284.046L-20.2171 290.949L-52.3503 295.011L-83.7821 292.857L-113.429 284.858L-140.258 271.615L-163.432 253.955L-182.298 232.837L-196.365 209.38L-205.398 184.717L-209.336 160.066L-208.327 136.646L-202.764 115.614L-193.227 98.0644L-180.489 84.9331L-165.512 76.9829L-149.377 74.78L-146.485 75.4569L-142.35 76.4412L-137.92 77.4997L-133.292 78.5949L-129.686 81.0073L-123.065 85.4253L-122.019 86.1268L-118.512 88.465L-106.303 104.07L-97.8487 124.807L-97.5164 131.084" stroke="url(#paint19_linear_81_793)" stroke-opacity="0.3" stroke-width="1.08501" stroke-linecap="round" stroke-linejoin="round"/>
<path d="M119.49 299.072L102.15 311.49L84.5139 324.104L66.5954 336.928L48.3812 349.973" stroke="url(#paint20_linear_81_793)" stroke-opacity="0.3" stroke-width="1.08501" stroke-linecap="round" stroke-linejoin="round"/>
<path d="M485.939 192.088L496.523 210.573L507.292 229.378L518.245 248.515L529.395 267.984L509.802 305.496L482.74 342.035L448.305 375.682L407.016 404.418L359.794 426.287L307.97 439.603L253.217 443L197.602 435.616L143.391 417.205L92.9081 388.259L49.699 351.105L48.382 349.973L36.4321 335.057L23.6205 319.07L22.4268 317.581L11.7569 304.277L10.5631 302.05L0.865199 284.045L-15.466 253.745L-32.4492 201.33L-39.0704 150.171L-35.9814 103.282L-24.4744 63.2724L-6.3834 32.1607L16.1135 11.2144L40.7395 1L65.2423 1.29535L87.5915 11.276L106.089 29.6377L118.334 49.944L130.69 70.4597L143.182 91.1843L153.052 107.565L155.784 112.106L165.765 130.898L171.413 155.082L171.709 183.596" stroke="url(#paint21_linear_81_793)" stroke-opacity="0.3" stroke-width="1.08501" stroke-linecap="round" stroke-linejoin="round"/>
<path d="M77.6833 231.162L91.4546 215.028L109.484 184.323L121.693 151.242" stroke="url(#paint22_linear_81_793)" stroke-opacity="0.3" stroke-width="1.08501" stroke-linecap="round" stroke-linejoin="round"/>
<path d="M332.275 344.348L338.982 364.31L345.8 384.616L352.741 405.279L359.793 426.287" stroke="url(#paint23_linear_81_793)" stroke-opacity="0.3" stroke-width="1.08501" stroke-linecap="round" stroke-linejoin="round"/>
<path d="M292.291 354.735L296.106 375.411L299.995 396.443L303.946 417.845L307.97 439.603" stroke="url(#paint24_linear_81_793)" stroke-opacity="0.3" stroke-width="1.08501" stroke-linecap="round" stroke-linejoin="round"/>
<path d="M370.968 326.232L379.756 345.271L388.678 364.642L397.773 384.358L407.015 404.418" stroke="url(#paint25_linear_81_793)" stroke-opacity="0.3" stroke-width="1.08501" stroke-linecap="round" stroke-linejoin="round"/>
<path d="M252.429 357.283L252.613 378.18L252.822 399.422L253.019 421.02L253.216 443" stroke="url(#paint26_linear_81_793)" stroke-opacity="0.3" stroke-width="1.08501" stroke-linecap="round" stroke-linejoin="round"/>
<path d="M34.7947 359.215L28.8504 339.204L22.9677 319.427L22.4263 317.581" stroke="url(#paint27_linear_81_793)" stroke-opacity="0.3" stroke-width="1.08501" stroke-linecap="round" stroke-linejoin="round"/>
<path d="M406.954 300.881L417.021 319.095L427.26 337.629L437.696 356.495L448.305 375.682" stroke="url(#paint28_linear_81_793)" stroke-opacity="0.3" stroke-width="1.08501" stroke-linecap="round" stroke-linejoin="round"/>
<path d="M465.546 232.344L476.327 250.152L487.28 268.28L498.442 286.716L509.801 305.496" stroke="url(#paint29_linear_81_793)" stroke-opacity="0.3" stroke-width="1.08501" stroke-linecap="round" stroke-linejoin="round"/>
<path d="M146.577 322.159L133.495 338.269L120.191 354.649L106.666 371.313L92.9072 388.259" stroke="url(#paint30_linear_81_793)" stroke-opacity="0.3" stroke-width="1.08501" stroke-linecap="round" stroke-linejoin="round"/>
<path d="M438.877 269.167L449.559 286.913L460.414 304.967L471.478 323.329L482.739 342.035" stroke="url(#paint31_linear_81_793)" stroke-opacity="0.3" stroke-width="1.08501" stroke-linecap="round" stroke-linejoin="round"/>
<path d="M214.056 352.274L210.044 372.58L205.971 393.231L201.823 414.239L197.602 435.616" stroke="url(#paint32_linear_81_793)" stroke-opacity="0.3" stroke-width="1.08501" stroke-linecap="round" stroke-linejoin="round"/>
<path d="M178.403 340.262L169.875 359.018L161.198 378.081L152.375 397.477L143.391 417.205" stroke="url(#paint33_linear_81_793)" stroke-opacity="0.3" stroke-width="1.08501" stroke-linecap="round" stroke-linejoin="round"/>
<path d="M133.557 280.624L122.825 263.911L112.241 247.408L101.781 231.113L91.4553 215.028" stroke="url(#paint34_linear_81_793)" stroke-opacity="0.3" stroke-width="1.08501" stroke-linecap="round" stroke-linejoin="round"/>
<path d="M109.484 184.323L120.203 199.928" stroke="url(#paint35_linear_81_793)" stroke-opacity="0.3" stroke-width="1.08501" stroke-linecap="round" stroke-linejoin="round"/>
<path d="M144.449 101.202L148.805 119.404L149.335 150.073L143.476 182.735L131.059 215.73L112.242 247.408L95.0366 267.369" stroke="url(#paint36_linear_81_793)" stroke-opacity="0.3" stroke-width="1.08501" stroke-linecap="round" stroke-linejoin="round"/>
<path d="M49.6982 351.104L34.7944 359.214L-8.74731 373.318L-55.3532 379.09L-103.19 375.73L-150.227 362.943L-194.371 341.025L-233.593 310.91L-266.095 274.113L-290.463 232.7L-305.834 189.097L-312 145.888L-309.379 105.62L-298.992 70.5207L-282.341 42.3995L-261.283 22.4871L-237.839 11.3987L-213.988 9.12177L-197.965 25.4037L-181.855 41.7718L-165.659 58.2262L-149.377 74.7789" stroke="url(#paint37_linear_81_793)" stroke-opacity="0.3" stroke-width="1.08501" stroke-linecap="round" stroke-linejoin="round"/>
<path d="M36.4311 335.057L28.8499 339.204L-11.6641 352.348L-54.5905 357.689L-98.2552 354.637L-140.861 343.069L-180.6 323.366L-215.748 296.413L-244.793 263.628L-266.576 226.782L-280.384 187.99L-286.045 149.482L-283.904 113.435L-274.809 81.8562L-260.029 56.3318L-241.125 38.0684L-219.847 27.7061L-197.965 25.4046L-177.154 30.8075L-158.952 43.1879L-145.587 58.1656L-132.111 73.2537" stroke="url(#paint38_linear_81_793)" stroke-opacity="0.3" stroke-width="1.08501" stroke-linecap="round" stroke-linejoin="round"/>
<path d="M133.988 96.0206L137.704 101.891L148.805 119.404L160.041 137.138L160.448 166.723L154.577 198.795L142.061 231.753L122.826 263.91L106.371 282.924" stroke="url(#paint39_linear_81_793)" stroke-opacity="0.3" stroke-width="1.08501" stroke-linecap="round" stroke-linejoin="round"/>
<path d="M136.536 97.0424L137.705 101.891L138.357 133.619L132.511 166.884L143.477 182.735L154.578 198.796L165.826 215.065" stroke="url(#paint40_linear_81_793)" stroke-opacity="0.3" stroke-width="1.08501" stroke-linecap="round" stroke-linejoin="round"/>
<path d="M152.301 108.771L153.987 111.528L160.042 137.139L171.413 155.082" stroke="url(#paint41_linear_81_793)" stroke-opacity="0.3" stroke-width="1.08501" stroke-linecap="round" stroke-linejoin="round"/>
<path d="M152.731 109.177L153.974 111.516L165.764 130.899" stroke="url(#paint42_linear_81_793)" stroke-opacity="0.3" stroke-width="1.08501" stroke-linecap="round" stroke-linejoin="round"/>
<path d="M23.6205 319.07L22.9682 319.427L-14.5553 331.635L-53.8387 336.546L-93.3681 333.789L-131.606 323.427L-166.988 305.902L-198.099 282.1L-223.722 253.253L-242.933 220.923L-255.166 186.882L-260.286 153.038L-258.575 121.213L-250.711 93.1412L-237.728 70.2627L-220.929 53.6731L-201.791 44.074L-181.854 41.7725L-162.631 46.6336L-148.011 62.5586L-140.934 70.275L-133.292 78.5944" stroke="url(#paint43_linear_81_793)" stroke-opacity="0.3" stroke-width="1.08501" stroke-linecap="round" stroke-linejoin="round"/>
<defs>
<linearGradient id="paint0_linear_81_793" x1="276.698" y1="93.4984" x2="276.698" y2="357.283" gradientUnits="userSpaceOnUse">
<stop stop-color="#D59397"/>
<stop offset="0.495" stop-color="#0730C0"/>
</linearGradient>
<linearGradient id="paint1_linear_81_793" x1="268.889" y1="70.25" x2="268.889" y2="378.18" gradientUnits="userSpaceOnUse">
<stop stop-color="#D59397"/>
<stop offset="0.495" stop-color="#0730C0"/>
</linearGradient>
<linearGradient id="paint2_linear_81_793" x1="261.032" y1="47.1388" x2="261.032" y2="399.422" gradientUnits="userSpaceOnUse">
<stop stop-color="#D59397"/>
<stop offset="0.495" stop-color="#0730C0"/>
</linearGradient>
<linearGradient id="paint3_linear_81_793" x1="253.117" y1="24.149" x2="253.117" y2="421.02" gradientUnits="userSpaceOnUse">
<stop stop-color="#D59397"/>
<stop offset="0.495" stop-color="#0730C0"/>
</linearGradient>
<linearGradient id="paint4_linear_81_793" x1="102.857" y1="199.928" x2="102.857" y2="250.078" gradientUnits="userSpaceOnUse">
<stop stop-color="#D59397"/>
<stop offset="0.495" stop-color="#0730C0"/>
</linearGradient>
<linearGradient id="paint5_linear_81_793" x1="136.708" y1="117.386" x2="136.708" y2="247.974" gradientUnits="userSpaceOnUse">
<stop stop-color="#D59397"/>
<stop offset="0.495" stop-color="#0730C0"/>
</linearGradient>
<linearGradient id="paint6_linear_81_793" x1="38.9726" y1="32.1611" x2="38.9726" y2="115.208" gradientUnits="userSpaceOnUse">
<stop stop-color="#D59397"/>
<stop offset="0.495" stop-color="#0730C0"/>
</linearGradient>
<linearGradient id="paint7_linear_81_793" x1="24.9733" y1="63.2719" x2="24.9733" y2="134.221" gradientUnits="userSpaceOnUse">
<stop stop-color="#D59397"/>
<stop offset="0.495" stop-color="#0730C0"/>
</linearGradient>
<linearGradient id="paint8_linear_81_793" x1="56.6825" y1="11.2145" x2="56.6825" y2="101.657" gradientUnits="userSpaceOnUse">
<stop stop-color="#D59397"/>
<stop offset="0.495" stop-color="#0730C0"/>
</linearGradient>
<linearGradient id="paint9_linear_81_793" x1="16.2793" y1="103.281" x2="16.2793" y2="157.751" gradientUnits="userSpaceOnUse">
<stop stop-color="#D59397"/>
<stop offset="0.495" stop-color="#0730C0"/>
</linearGradient>
<linearGradient id="paint10_linear_81_793" x1="-112.076" y1="58.2267" x2="-112.076" y2="315.649" gradientUnits="userSpaceOnUse">
<stop stop-color="#D59397"/>
<stop offset="0.495" stop-color="#0730C0"/>
</linearGradient>
<linearGradient id="paint11_linear_81_793" x1="76.4226" y1="1" x2="76.4226" y2="94.2733" gradientUnits="userSpaceOnUse">
<stop stop-color="#D59397"/>
<stop offset="0.495" stop-color="#0730C0"/>
</linearGradient>
<linearGradient id="paint12_linear_81_793" x1="14.1936" y1="150.171" x2="14.1936" y2="184.679" gradientUnits="userSpaceOnUse">
<stop stop-color="#D59397"/>
<stop offset="0.495" stop-color="#0730C0"/>
</linearGradient>
<linearGradient id="paint13_linear_81_793" x1="97.9658" y1="1.29572" x2="97.9658" y2="70.4601" gradientUnits="userSpaceOnUse">
<stop stop-color="#D59397"/>
<stop offset="0.495" stop-color="#0730C0"/>
</linearGradient>
<linearGradient id="paint14_linear_81_793" x1="19.6512" y1="201.33" x2="19.6512" y2="213.686" gradientUnits="userSpaceOnUse">
<stop stop-color="#D59397"/>
<stop offset="0.495" stop-color="#0730C0"/>
</linearGradient>
<linearGradient id="paint15_linear_81_793" x1="102.963" y1="11.2755" x2="102.963" y2="49.9434" gradientUnits="userSpaceOnUse">
<stop stop-color="#D59397"/>
<stop offset="0.495" stop-color="#0730C0"/>
</linearGradient>
<linearGradient id="paint16_linear_81_793" x1="33.1765" y1="243.395" x2="33.1765" y2="253.745" gradientUnits="userSpaceOnUse">
<stop stop-color="#D59397"/>
<stop offset="0.495" stop-color="#0730C0"/>
</linearGradient>
<linearGradient id="paint17_linear_81_793" x1="145.119" y1="93.5347" x2="145.119" y2="297.902" gradientUnits="userSpaceOnUse">
<stop stop-color="#D59397"/>
<stop offset="0.495" stop-color="#0730C0"/>
</linearGradient>
<linearGradient id="paint18_linear_81_793" x1="54.7625" y1="272.354" x2="54.7625" y2="304.278" gradientUnits="userSpaceOnUse">
<stop stop-color="#D59397"/>
<stop offset="0.495" stop-color="#0730C0"/>
</linearGradient>
<linearGradient id="paint19_linear_81_793" x1="-104.236" y1="74.78" x2="-104.236" y2="295.011" gradientUnits="userSpaceOnUse">
<stop stop-color="#D59397"/>
<stop offset="0.495" stop-color="#0730C0"/>
</linearGradient>
<linearGradient id="paint20_linear_81_793" x1="83.9357" y1="299.072" x2="83.9357" y2="349.973" gradientUnits="userSpaceOnUse">
<stop stop-color="#D59397"/>
<stop offset="0.495" stop-color="#0730C0"/>
</linearGradient>
<linearGradient id="paint21_linear_81_793" x1="245.162" y1="1" x2="245.162" y2="443" gradientUnits="userSpaceOnUse">
<stop stop-color="#D59397"/>
<stop offset="0.495" stop-color="#0730C0"/>
</linearGradient>
<linearGradient id="paint22_linear_81_793" x1="99.688" y1="151.242" x2="99.688" y2="231.162" gradientUnits="userSpaceOnUse">
<stop stop-color="#D59397"/>
<stop offset="0.495" stop-color="#0730C0"/>
</linearGradient>
<linearGradient id="paint23_linear_81_793" x1="346.034" y1="344.348" x2="346.034" y2="426.287" gradientUnits="userSpaceOnUse">
<stop stop-color="#D59397"/>
<stop offset="0.495" stop-color="#0730C0"/>
</linearGradient>
<linearGradient id="paint24_linear_81_793" x1="300.131" y1="354.735" x2="300.131" y2="439.603" gradientUnits="userSpaceOnUse">
<stop stop-color="#D59397"/>
<stop offset="0.495" stop-color="#0730C0"/>
</linearGradient>
<linearGradient id="paint25_linear_81_793" x1="388.992" y1="326.232" x2="388.992" y2="404.418" gradientUnits="userSpaceOnUse">
<stop stop-color="#D59397"/>
<stop offset="0.495" stop-color="#0730C0"/>
</linearGradient>
<linearGradient id="paint26_linear_81_793" x1="252.822" y1="357.283" x2="252.822" y2="443" gradientUnits="userSpaceOnUse">
<stop stop-color="#D59397"/>
<stop offset="0.495" stop-color="#0730C0"/>
</linearGradient>
<linearGradient id="paint27_linear_81_793" x1="28.6105" y1="317.581" x2="28.6105" y2="359.215" gradientUnits="userSpaceOnUse">
<stop stop-color="#D59397"/>
<stop offset="0.495" stop-color="#0730C0"/>
</linearGradient>
<linearGradient id="paint28_linear_81_793" x1="427.629" y1="300.881" x2="427.629" y2="375.682" gradientUnits="userSpaceOnUse">
<stop stop-color="#D59397"/>
<stop offset="0.495" stop-color="#0730C0"/>
</linearGradient>
<linearGradient id="paint29_linear_81_793" x1="487.674" y1="232.344" x2="487.674" y2="305.496" gradientUnits="userSpaceOnUse">
<stop stop-color="#D59397"/>
<stop offset="0.495" stop-color="#0730C0"/>
</linearGradient>
<linearGradient id="paint30_linear_81_793" x1="119.742" y1="322.159" x2="119.742" y2="388.259" gradientUnits="userSpaceOnUse">
<stop stop-color="#D59397"/>
<stop offset="0.495" stop-color="#0730C0"/>
</linearGradient>
<linearGradient id="paint31_linear_81_793" x1="460.808" y1="269.167" x2="460.808" y2="342.035" gradientUnits="userSpaceOnUse">
<stop stop-color="#D59397"/>
<stop offset="0.495" stop-color="#0730C0"/>
</linearGradient>
<linearGradient id="paint32_linear_81_793" x1="205.829" y1="352.274" x2="205.829" y2="435.616" gradientUnits="userSpaceOnUse">
<stop stop-color="#D59397"/>
<stop offset="0.495" stop-color="#0730C0"/>
</linearGradient>
<linearGradient id="paint33_linear_81_793" x1="160.897" y1="340.262" x2="160.897" y2="417.205" gradientUnits="userSpaceOnUse">
<stop stop-color="#D59397"/>
<stop offset="0.495" stop-color="#0730C0"/>
</linearGradient>
<linearGradient id="paint34_linear_81_793" x1="112.506" y1="215.028" x2="112.506" y2="280.624" gradientUnits="userSpaceOnUse">
<stop stop-color="#D59397"/>
<stop offset="0.495" stop-color="#0730C0"/>
</linearGradient>
<linearGradient id="paint35_linear_81_793" x1="114.844" y1="184.323" x2="114.844" y2="199.928" gradientUnits="userSpaceOnUse">
<stop stop-color="#D59397"/>
<stop offset="0.495" stop-color="#0730C0"/>
</linearGradient>
<linearGradient id="paint36_linear_81_793" x1="122.186" y1="101.202" x2="122.186" y2="267.369" gradientUnits="userSpaceOnUse">
<stop stop-color="#D59397"/>
<stop offset="0.495" stop-color="#0730C0"/>
</linearGradient>
<linearGradient id="paint37_linear_81_793" x1="-131.151" y1="9.12177" x2="-131.151" y2="379.09" gradientUnits="userSpaceOnUse">
<stop stop-color="#D59397"/>
<stop offset="0.495" stop-color="#0730C0"/>
</linearGradient>
<linearGradient id="paint38_linear_81_793" x1="-124.807" y1="25.4046" x2="-124.807" y2="357.689" gradientUnits="userSpaceOnUse">
<stop stop-color="#D59397"/>
<stop offset="0.495" stop-color="#0730C0"/>
</linearGradient>
<linearGradient id="paint39_linear_81_793" x1="133.409" y1="96.0206" x2="133.409" y2="282.924" gradientUnits="userSpaceOnUse">
<stop stop-color="#D59397"/>
<stop offset="0.495" stop-color="#0730C0"/>
</linearGradient>
<linearGradient id="paint40_linear_81_793" x1="149.169" y1="97.0424" x2="149.169" y2="215.065" gradientUnits="userSpaceOnUse">
<stop stop-color="#D59397"/>
<stop offset="0.495" stop-color="#0730C0"/>
</linearGradient>
<linearGradient id="paint41_linear_81_793" x1="161.857" y1="108.771" x2="161.857" y2="155.082" gradientUnits="userSpaceOnUse">
<stop stop-color="#D59397"/>
<stop offset="0.495" stop-color="#0730C0"/>
</linearGradient>
<linearGradient id="paint42_linear_81_793" x1="159.247" y1="109.177" x2="159.247" y2="130.899" gradientUnits="userSpaceOnUse">
<stop stop-color="#D59397"/>
<stop offset="0.495" stop-color="#0730C0"/>
</linearGradient>
<linearGradient id="paint43_linear_81_793" x1="-118.333" y1="41.7725" x2="-118.333" y2="336.546" gradientUnits="userSpaceOnUse">
<stop stop-color="#D59397"/>
<stop offset="0.495" stop-color="#0730C0"/>
</linearGradient>
</defs>
</svg>
